<?xml version="1.0" encoding="UTF-8" standalone="no"?>
<!DOCTYPE svg PUBLIC "-//W3C//DTD SVG 1.1//EN"
 "http://www.w3.org/Graphics/SVG/1.1/DTD/svg11.dtd">
<!-- Generated by graphviz version 2.40.1 (20161225.0304)
 -->
<!-- Title: App Pages: 1 -->
<svg width="490pt" height="678pt"
 viewBox="0.00 0.00 490.08 677.60" xmlns="http://www.w3.org/2000/svg" xmlns:xlink="http://www.w3.org/1999/xlink">
<g id="graph0" class="graph" transform="scale(1 1) rotate(0) translate(28.8 648.8)">
<title>App</title>
<polygon fill="#ffffff" stroke="transparent" points="-28.8,28.8 -28.8,-648.8 461.2795,-648.8 461.2795,28.8 -28.8,28.8"/>
<text text-anchor="middle" x="216.2397" y="-605.6" font-family="Arial Bold" font-size="13.00" fill="#000000">App domain model</text>
<!-- m_ActiveStorage::Attachment -->
<g id="node1" class="node">
<title>m_ActiveStorage::Attachment</title>
<path fill="none" stroke="#000000" d="M229.5,-.5C229.5,-.5 358.5,-.5 358.5,-.5 364.5,-.5 370.5,-6.5 370.5,-12.5 370.5,-12.5 370.5,-83.5 370.5,-83.5 370.5,-89.5 364.5,-95.5 358.5,-95.5 358.5,-95.5 229.5,-95.5 229.5,-95.5 223.5,-95.5 217.5,-89.5 217.5,-83.5 217.5,-83.5 217.5,-12.5 217.5,-12.5 217.5,-6.5 223.5,-.5 229.5,-.5"/>
<text text-anchor="start" x="223" y="-82.7" font-family="Arial Bold" font-size="11.00" fill="#000000">ActiveStorage::Attachment</text>
<polyline fill="none" stroke="#000000" points="217.5,-75.5 370.5,-75.5 "/>
<text text-anchor="start" x="229" y="-62" font-family="Arial" font-size="10.00" fill="#000000">blob_id </text>
<text text-anchor="start" x="263" y="-62" font-family="Arial Italic" font-size="10.00" fill="#999999">integer (8) ∗ FK</text>
<text text-anchor="start" x="229" y="-49" font-family="Arial" font-size="10.00" fill="#000000">id </text>
<text text-anchor="start" x="240" y="-49" font-family="Arial Italic" font-size="10.00" fill="#999999">integer (8) PK</text>
<text text-anchor="start" x="229" y="-36" font-family="Arial" font-size="10.00" fill="#000000">name </text>
<text text-anchor="start" x="257" y="-36" font-family="Arial Italic" font-size="10.00" fill="#999999">string ∗</text>
<text text-anchor="start" x="229" y="-23" font-family="Arial" font-size="10.00" fill="#000000">record_id </text>
<text text-anchor="start" x="272" y="-23" font-family="Arial Italic" font-size="10.00" fill="#999999">integer (8) ∗ FK</text>
<text text-anchor="start" x="229" y="-10" font-family="Arial" font-size="10.00" fill="#000000">record_type </text>
<text text-anchor="start" x="284" y="-10" font-family="Arial Italic" font-size="10.00" fill="#999999">string ∗</text>
</g>
<!-- m_ActiveStorage::Blob -->
<g id="node2" class="node">
<title>m_ActiveStorage::Blob</title>
<path fill="none" stroke="#000000" d="M234,-132.5C234,-132.5 354,-132.5 354,-132.5 360,-132.5 366,-138.5 366,-144.5 366,-144.5 366,-241.5 366,-241.5 366,-247.5 360,-253.5 354,-253.5 354,-253.5 234,-253.5 234,-253.5 228,-253.5 222,-247.5 222,-241.5 222,-241.5 222,-144.5 222,-144.5 222,-138.5 228,-132.5 234,-132.5"/>
<text text-anchor="start" x="238.5" y="-240.7" font-family="Arial Bold" font-size="11.00" fill="#000000">ActiveStorage::Blob</text>
<polyline fill="none" stroke="#000000" points="222,-233.5 366,-233.5 "/>
<text text-anchor="start" x="229" y="-220" font-family="Arial" font-size="10.00" fill="#000000">byte_size </text>
<text text-anchor="start" x="275" y="-220" font-family="Arial Italic" font-size="10.00" fill="#999999">integer (8) ∗</text>
<text text-anchor="start" x="229" y="-207" font-family="Arial" font-size="10.00" fill="#000000">checksum </text>
<text text-anchor="start" x="278" y="-207" font-family="Arial Italic" font-size="10.00" fill="#999999">string ∗</text>
<text text-anchor="start" x="229" y="-194" font-family="Arial" font-size="10.00" fill="#000000">content_type </text>
<text text-anchor="start" x="289" y="-194" font-family="Arial Italic" font-size="10.00" fill="#999999">string</text>
<text text-anchor="start" x="229" y="-181" font-family="Arial" font-size="10.00" fill="#000000">filename </text>
<text text-anchor="start" x="269" y="-181" font-family="Arial Italic" font-size="10.00" fill="#999999">string ∗</text>
<text text-anchor="start" x="229" y="-168" font-family="Arial" font-size="10.00" fill="#000000">id </text>
<text text-anchor="start" x="240" y="-168" font-family="Arial Italic" font-size="10.00" fill="#999999">integer (8) PK</text>
<text text-anchor="start" x="229" y="-155" font-family="Arial" font-size="10.00" fill="#000000">key </text>
<text text-anchor="start" x="248" y="-155" font-family="Arial Italic" font-size="10.00" fill="#999999">string ∗</text>
<text text-anchor="start" x="229" y="-142" font-family="Arial" font-size="10.00" fill="#000000">metadata </text>
<text text-anchor="start" x="273" y="-142" font-family="Arial Italic" font-size="10.00" fill="#999999">text (65535)</text>
</g>
<!-- m_ActiveStorage::Blob&#45;&gt;m_ActiveStorage::Attachment -->
<g id="edge3" class="edge">
<title>m_ActiveStorage::Blob&#45;&gt;m_ActiveStorage::Attachment</title>
<path fill="none" stroke="#000000" d="M294,-132.3471C294,-120.0855 294,-107.3592 294,-95.6228"/>
</g>
<!-- m_ActiveStorage::Blob&#45;&gt;m_ActiveStorage::Blob -->
<g id="edge16" class="edge">
<title>m_ActiveStorage::Blob&#45;&gt;m_ActiveStorage::Blob</title>
<path fill="none" stroke="#000000" stroke-dasharray="1,5" d="M366.1757,-219.4051C382.7932,-217.1298 395,-208.3281 395,-193 395,-177.6719 382.7932,-168.8702 366.1757,-166.5949"/>
</g>
<!-- m_AuthenticateToken -->
<g id="node3" class="node">
<title>m_AuthenticateToken</title>
<path fill="none" stroke="#000000" d="M252,-297C252,-297 372,-297 372,-297 378,-297 384,-303 384,-309 384,-309 384,-380 384,-380 384,-386 378,-392 372,-392 372,-392 252,-392 252,-392 246,-392 240,-386 240,-380 240,-380 240,-309 240,-309 240,-303 246,-297 252,-297"/>
<text text-anchor="start" x="260.5" y="-379.2" font-family="Arial Bold" font-size="11.00" fill="#000000">AuthenticateToken</text>
<polyline fill="none" stroke="#000000" points="240,-372 384,-372 "/>
<text text-anchor="start" x="247" y="-358.5" font-family="Arial" font-size="10.00" fill="#000000">active </text>
<text text-anchor="start" x="277" y="-358.5" font-family="Arial Italic" font-size="10.00" fill="#999999">boolean (0)</text>
<text text-anchor="start" x="247" y="-345.5" font-family="Arial" font-size="10.00" fill="#000000">id </text>
<text text-anchor="start" x="258" y="-345.5" font-family="Arial Italic" font-size="10.00" fill="#999999">integer (8) PK</text>
<text text-anchor="start" x="247" y="-332.5" font-family="Arial" font-size="10.00" fill="#000000">last_access </text>
<text text-anchor="start" x="303" y="-332.5" font-family="Arial Italic" font-size="10.00" fill="#999999">datetime (0,0)</text>
<text text-anchor="start" x="247" y="-319.5" font-family="Arial" font-size="10.00" fill="#000000">token </text>
<text text-anchor="start" x="275" y="-319.5" font-family="Arial Italic" font-size="10.00" fill="#999999">string</text>
<text text-anchor="start" x="247" y="-306.5" font-family="Arial" font-size="10.00" fill="#000000">user_id </text>
<text text-anchor="start" x="282" y="-306.5" font-family="Arial Italic" font-size="10.00" fill="#999999">integer (8) FK</text>
</g>
<!-- m_Group -->
<g id="node4" class="node">
<title>m_Group</title>
<path fill="none" stroke="#000000" d="M12,-474.5C12,-474.5 132,-474.5 132,-474.5 138,-474.5 144,-480.5 144,-486.5 144,-486.5 144,-531.5 144,-531.5 144,-537.5 138,-543.5 132,-543.5 132,-543.5 12,-543.5 12,-543.5 6,-543.5 0,-537.5 0,-531.5 0,-531.5 0,-486.5 0,-486.5 0,-480.5 6,-474.5 12,-474.5"/>
<text text-anchor="start" x="53" y="-530.7" font-family="Arial Bold" font-size="11.00" fill="#000000">Group</text>
<polyline fill="none" stroke="#000000" points="0,-523.5 144,-523.5 "/>
<text text-anchor="start" x="7" y="-510" font-family="Arial" font-size="10.00" fill="#000000">id </text>
<text text-anchor="start" x="18" y="-510" font-family="Arial Italic" font-size="10.00" fill="#999999">integer (8) PK</text>
<text text-anchor="start" x="7" y="-497" font-family="Arial" font-size="10.00" fill="#000000">name </text>
<text text-anchor="start" x="35" y="-497" font-family="Arial Italic" font-size="10.00" fill="#999999">string</text>
<text text-anchor="start" x="7" y="-484" font-family="Arial" font-size="10.00" fill="#000000">parent_id </text>
<text text-anchor="start" x="50" y="-484" font-family="Arial Italic" font-size="10.00" fill="#999999">integer FK</text>
</g>
<!-- m_Group&#45;&gt;m_Group -->
<g id="edge9" class="edge">
<title>m_Group&#45;&gt;m_Group</title>
<path fill="none" stroke="#000000" d="M144.1757,-539.0725C160.7932,-536.4812 173,-526.457 173,-509 173,-494.8162 164.9416,-485.5392 153.0064,-481.1691"/>
<polygon fill="#000000" stroke="#000000" points="153.674,-478.0887 144.1757,-478.9275 152.124,-484.1951 153.674,-478.0887"/>
</g>
<!-- m_GroupUser -->
<g id="node5" class="node">
<title>m_GroupUser</title>
<path fill="none" stroke="#000000" d="M79,-290.5C79,-290.5 199,-290.5 199,-290.5 205,-290.5 211,-296.5 211,-302.5 211,-302.5 211,-386.5 211,-386.5 211,-392.5 205,-398.5 199,-398.5 199,-398.5 79,-398.5 79,-398.5 73,-398.5 67,-392.5 67,-386.5 67,-386.5 67,-302.5 67,-302.5 67,-296.5 73,-290.5 79,-290.5"/>
<text text-anchor="start" x="107.5" y="-385.7" font-family="Arial Bold" font-size="11.00" fill="#000000">GroupUser</text>
<polyline fill="none" stroke="#000000" points="67,-378.5 211,-378.5 "/>
<text text-anchor="start" x="74" y="-365.5" font-family="Arial" font-size="10.00" fill="#000000">admin </text>
<text text-anchor="start" x="104" y="-365.5" font-family="Arial Italic" font-size="10.00" fill="#999999">boolean (0) ∗</text>
<text text-anchor="start" x="74" y="-352.5" font-family="Arial" font-size="10.00" fill="#000000">group_id </text>
<text text-anchor="start" x="114" y="-352.5" font-family="Arial Italic" font-size="10.00" fill="#999999">integer (8) FK</text>
<text text-anchor="start" x="74" y="-339.5" font-family="Arial" font-size="10.00" fill="#000000">id </text>
<text text-anchor="start" x="85" y="-339.5" font-family="Arial Italic" font-size="10.00" fill="#999999">integer (8) PK</text>
<text text-anchor="start" x="74" y="-326.5" font-family="Arial" font-size="10.00" fill="#000000">image </text>
<text text-anchor="start" x="104" y="-326.5" font-family="Arial Italic" font-size="10.00" fill="#999999">string</text>
<text text-anchor="start" x="74" y="-313.5" font-family="Arial" font-size="10.00" fill="#000000">name </text>
<text text-anchor="start" x="102" y="-313.5" font-family="Arial Italic" font-size="10.00" fill="#999999">string ∗</text>
<text text-anchor="start" x="74" y="-300.5" font-family="Arial" font-size="10.00" fill="#000000">user_id </text>
<text text-anchor="start" x="109" y="-300.5" font-family="Arial Italic" font-size="10.00" fill="#999999">integer (8) FK</text>
</g>
<!-- m_Group&#45;&gt;m_GroupUser -->
<g id="edge1" class="edge">
<title>m_Group&#45;&gt;m_GroupUser</title>
<path fill="none" stroke="#000000" d="M86.209,-474.1138C94.1112,-454.7121 104.1858,-429.9767 113.4113,-407.3259"/>
<polygon fill="#000000" stroke="#000000" points="116.4216,-408.2857 116.8992,-398.7623 110.587,-405.9093 116.4216,-408.2857"/>
</g>
<!-- m_Post -->
<g id="node6" class="node">
<title>m_Post</title>
<path fill="none" stroke="#000000" d="M43,-139C43,-139 163,-139 163,-139 169,-139 175,-145 175,-151 175,-151 175,-235 175,-235 175,-241 169,-247 163,-247 163,-247 43,-247 43,-247 37,-247 31,-241 31,-235 31,-235 31,-151 31,-151 31,-145 37,-139 43,-139"/>
<text text-anchor="start" x="88.5" y="-234.2" font-family="Arial Bold" font-size="11.00" fill="#000000">Post</text>
<polyline fill="none" stroke="#000000" points="31,-227 175,-227 "/>
<text text-anchor="start" x="38" y="-214" font-family="Arial" font-size="10.00" fill="#000000">content </text>
<text text-anchor="start" x="74" y="-214" font-family="Arial Italic" font-size="10.00" fill="#999999">text (65535)</text>
<text text-anchor="start" x="38" y="-201" font-family="Arial" font-size="10.00" fill="#000000">group_id </text>
<text text-anchor="start" x="78" y="-201" font-family="Arial Italic" font-size="10.00" fill="#999999">integer (8) FK</text>
<text text-anchor="start" x="38" y="-188" font-family="Arial" font-size="10.00" fill="#000000">group_user_id </text>
<text text-anchor="start" x="102" y="-188" font-family="Arial Italic" font-size="10.00" fill="#999999">integer FK</text>
<text text-anchor="start" x="38" y="-175" font-family="Arial" font-size="10.00" fill="#000000">id </text>
<text text-anchor="start" x="49" y="-175" font-family="Arial Italic" font-size="10.00" fill="#999999">integer (8) PK</text>
<text text-anchor="start" x="38" y="-162" font-family="Arial" font-size="10.00" fill="#000000">image </text>
<text text-anchor="start" x="68" y="-162" font-family="Arial Italic" font-size="10.00" fill="#999999">string</text>
<text text-anchor="start" x="38" y="-149" font-family="Arial" font-size="10.00" fill="#000000">parent_id </text>
<text text-anchor="start" x="81" y="-149" font-family="Arial Italic" font-size="10.00" fill="#999999">integer FK</text>
</g>
<!-- m_Group&#45;&gt;m_Post -->
<g id="edge11" class="edge">
<title>m_Group&#45;&gt;m_Post</title>
<path fill="none" stroke="#000000" d="M61.8696,-474.3295C50.6998,-430.6987 36.2613,-353.754 52,-290 54.8707,-278.3716 59.4135,-266.5965 64.6326,-255.45"/>
<polygon fill="#000000" stroke="#000000" points="67.611,-256.5301 68.739,-247.0617 61.9526,-253.7601 67.611,-256.5301"/>
</g>
<!-- m_User -->
<g id="node7" class="node">
<title>m_User</title>
<path fill="none" stroke="#000000" d="M227,-435.5C227,-435.5 347,-435.5 347,-435.5 353,-435.5 359,-441.5 359,-447.5 359,-447.5 359,-570.5 359,-570.5 359,-576.5 353,-582.5 347,-582.5 347,-582.5 227,-582.5 227,-582.5 221,-582.5 215,-576.5 215,-570.5 215,-570.5 215,-447.5 215,-447.5 215,-441.5 221,-435.5 227,-435.5"/>
<text text-anchor="start" x="272.5" y="-569.7" font-family="Arial Bold" font-size="11.00" fill="#000000">User</text>
<polyline fill="none" stroke="#000000" points="215,-562.5 359,-562.5 "/>
<text text-anchor="start" x="222" y="-549" font-family="Arial" font-size="10.00" fill="#000000">bio </text>
<text text-anchor="start" x="238" y="-549" font-family="Arial Italic" font-size="10.00" fill="#999999">text (65535)</text>
<text text-anchor="start" x="222" y="-536" font-family="Arial" font-size="10.00" fill="#000000">email </text>
<text text-anchor="start" x="249" y="-536" font-family="Arial Italic" font-size="10.00" fill="#999999">string</text>
<text text-anchor="start" x="222" y="-523" font-family="Arial" font-size="10.00" fill="#000000">id </text>
<text text-anchor="start" x="233" y="-523" font-family="Arial Italic" font-size="10.00" fill="#999999">integer (8) PK</text>
<text text-anchor="start" x="222" y="-510" font-family="Arial" font-size="10.00" fill="#000000">image </text>
<text text-anchor="start" x="252" y="-510" font-family="Arial Italic" font-size="10.00" fill="#999999">string</text>
<text text-anchor="start" x="222" y="-497" font-family="Arial" font-size="10.00" fill="#000000">name </text>
<text text-anchor="start" x="250" y="-497" font-family="Arial Italic" font-size="10.00" fill="#999999">string ∗</text>
<text text-anchor="start" x="222" y="-484" font-family="Arial" font-size="10.00" fill="#000000">oauth_token </text>
<text text-anchor="start" x="279" y="-484" font-family="Arial Italic" font-size="10.00" fill="#999999">string</text>
<text text-anchor="start" x="222" y="-471" font-family="Arial" font-size="10.00" fill="#000000">oauth_token_secret </text>
<text text-anchor="start" x="311" y="-471" font-family="Arial Italic" font-size="10.00" fill="#999999">string</text>
<text text-anchor="start" x="222" y="-458" font-family="Arial" font-size="10.00" fill="#000000">password_digest </text>
<text text-anchor="start" x="298" y="-458" font-family="Arial Italic" font-size="10.00" fill="#999999">string</text>
<text text-anchor="start" x="222" y="-445" font-family="Arial" font-size="10.00" fill="#000000">private </text>
<text text-anchor="start" x="255" y="-445" font-family="Arial Italic" font-size="10.00" fill="#999999">boolean (0) ∗</text>
</g>
<!-- m_GroupUser&#45;&gt;m_ActiveStorage::Attachment -->
<g id="edge4" class="edge">
<title>m_GroupUser&#45;&gt;m_ActiveStorage::Attachment</title>
<path fill="none" stroke="#000000" d="M211.0972,-296.7348C216.0465,-294.2712 221.0393,-291.9952 226,-290 298.8635,-260.6946 337.2515,-302.5286 399,-254 422.6022,-235.4508 427.7634,-223.018 428,-193"/>
<path fill="none" stroke="#000000" d="M428,-193C428.3134,-153.2398 400.8295,-119.7406 370.6754,-94.9919"/>
</g>
<!-- m_GroupUser&#45;&gt;m_ActiveStorage::Blob -->
<g id="edge7" class="edge">
<title>m_GroupUser&#45;&gt;m_ActiveStorage::Blob</title>
<path fill="none" stroke="#000000" stroke-dasharray="1,5" d="M194.5208,-290.2329C206.6821,-278.3463 219.6305,-265.6902 232.0264,-253.5742"/>
</g>
<!-- m_GroupUser&#45;&gt;m_Post -->
<g id="edge8" class="edge">
<title>m_GroupUser&#45;&gt;m_Post</title>
<path fill="none" stroke="#000000" d="M126.1049,-290.2329C123.4781,-279.1787 120.6933,-267.4591 118.0005,-256.1273"/>
<polygon fill="#000000" stroke="#000000" points="121.011,-255.1706 115.8656,-247.1427 114.8817,-256.6271 121.011,-255.1706"/>
</g>
<!-- m_Post&#45;&gt;m_ActiveStorage::Attachment -->
<g id="edge5" class="edge">
<title>m_Post&#45;&gt;m_ActiveStorage::Attachment</title>
<path fill="none" stroke="#000000" d="M174.393,-138.8012C193.0417,-124.6438 213.0026,-109.4901 231.1701,-95.6981"/>
</g>
<!-- m_Post&#45;&gt;m_Post -->
<g id="edge14" class="edge">
<title>m_Post&#45;&gt;m_Post</title>
<path fill="none" stroke="#000000" d="M175.1757,-219.4051C191.7932,-217.1298 204,-208.3281 204,-193 204,-180.5459 195.9416,-172.4003 184.0064,-168.5631"/>
<polygon fill="#000000" stroke="#000000" points="184.6454,-165.4783 175.1757,-166.5949 183.2748,-171.6274 184.6454,-165.4783"/>
</g>
<!-- m_User&#45;&gt;m_ActiveStorage::Attachment -->
<g id="edge6" class="edge">
<title>m_User&#45;&gt;m_ActiveStorage::Attachment</title>
<path fill="none" stroke="#000000" d="M428,-344.5C437.8038,-277.8842 427.4694,-260.3312 428,-193"/>
</g>
<!-- m_User&#45;&gt;m_ActiveStorage::Blob -->
<g id="edge12" class="edge">
<title>m_User&#45;&gt;m_ActiveStorage::Blob</title>
<path fill="none" stroke="#000000" stroke-dasharray="1,5" d="M359.3238,-456.1374C390.5572,-427.4431 421.4827,-388.7842 428,-344.5"/>
<path fill="none" stroke="#000000" stroke-dasharray="1,5" d="M428,-344.5C434.5186,-300.2065 401.3053,-262.4538 366.3198,-235.7137"/>
</g>
<!-- m_User&#45;&gt;m_AuthenticateToken -->
<g id="edge13" class="edge">
<title>m_User&#45;&gt;m_AuthenticateToken</title>
<path fill="none" stroke="#000000" d="M298.1838,-435.4105C299.9308,-423.9154 301.7124,-412.1921 303.3902,-401.1523"/>
<polygon fill="#000000" stroke="#000000" points="306.534,-401.4307 304.7721,-392.0595 300.3055,-400.484 306.534,-401.4307"/>
</g>
<!-- m_User&#45;&gt;m_GroupUser -->
<g id="edge2" class="edge">
<title>m_User&#45;&gt;m_GroupUser</title>
<path fill="none" stroke="#000000" d="M220.7918,-435.4105C211.8736,-425.498 202.8027,-415.4158 194.105,-405.7485"/>
<polygon fill="#000000" stroke="#000000" points="196.2066,-403.3747 187.8452,-398.7908 191.5231,-407.5884 196.2066,-403.3747"/>
</g>
</g>
</svg>
