<?xml version="1.0" encoding="UTF-8" standalone="no"?>
<!DOCTYPE svg PUBLIC "-//W3C//DTD SVG 1.1//EN"
 "http://www.w3.org/Graphics/SVG/1.1/DTD/svg11.dtd">
<!-- Generated by graphviz version 2.40.1 (20161225.0304)
 -->
<!-- Title: App Pages: 1 -->
<svg width="933pt" height="678pt"
 viewBox="0.00 0.00 933.12 677.60" xmlns="http://www.w3.org/2000/svg" xmlns:xlink="http://www.w3.org/1999/xlink">
<g id="graph0" class="graph" transform="scale(1 1) rotate(0) translate(28.8 648.8)">
<title>App</title>
<polygon fill="#ffffff" stroke="transparent" points="-28.8,28.8 -28.8,-648.8 904.3199,-648.8 904.3199,28.8 -28.8,28.8"/>
<text text-anchor="middle" x="437.7599" y="-605.6" font-family="Arial Bold" font-size="13.00" fill="#000000">App domain model</text>
<!-- m_ActiveStorage::Attachment -->
<g id="node1" class="node">
<title>m_ActiveStorage::Attachment</title>
<path fill="none" stroke="#000000" d="M521.5,-.5C521.5,-.5 650.5,-.5 650.5,-.5 656.5,-.5 662.5,-6.5 662.5,-12.5 662.5,-12.5 662.5,-83.5 662.5,-83.5 662.5,-89.5 656.5,-95.5 650.5,-95.5 650.5,-95.5 521.5,-95.5 521.5,-95.5 515.5,-95.5 509.5,-89.5 509.5,-83.5 509.5,-83.5 509.5,-12.5 509.5,-12.5 509.5,-6.5 515.5,-.5 521.5,-.5"/>
<text text-anchor="start" x="515" y="-82.7" font-family="Arial Bold" font-size="11.00" fill="#000000">ActiveStorage::Attachment</text>
<polyline fill="none" stroke="#000000" points="509.5,-75.5 662.5,-75.5 "/>
<text text-anchor="start" x="521" y="-62" font-family="Arial" font-size="10.00" fill="#000000">blob_id </text>
<text text-anchor="start" x="555" y="-62" font-family="Arial Italic" font-size="10.00" fill="#999999">integer (8) ∗ FK</text>
<text text-anchor="start" x="521" y="-49" font-family="Arial" font-size="10.00" fill="#000000">id </text>
<text text-anchor="start" x="532" y="-49" font-family="Arial Italic" font-size="10.00" fill="#999999">integer (8) PK</text>
<text text-anchor="start" x="521" y="-36" font-family="Arial" font-size="10.00" fill="#000000">name </text>
<text text-anchor="start" x="549" y="-36" font-family="Arial Italic" font-size="10.00" fill="#999999">string ∗</text>
<text text-anchor="start" x="521" y="-23" font-family="Arial" font-size="10.00" fill="#000000">record_id </text>
<text text-anchor="start" x="564" y="-23" font-family="Arial Italic" font-size="10.00" fill="#999999">integer (8) ∗ FK</text>
<text text-anchor="start" x="521" y="-10" font-family="Arial" font-size="10.00" fill="#000000">record_type </text>
<text text-anchor="start" x="576" y="-10" font-family="Arial Italic" font-size="10.00" fill="#999999">string ∗</text>
</g>
<!-- m_ActiveStorage::Blob -->
<g id="node2" class="node">
<title>m_ActiveStorage::Blob</title>
<path fill="none" stroke="#000000" d="M526,-132.5C526,-132.5 646,-132.5 646,-132.5 652,-132.5 658,-138.5 658,-144.5 658,-144.5 658,-241.5 658,-241.5 658,-247.5 652,-253.5 646,-253.5 646,-253.5 526,-253.5 526,-253.5 520,-253.5 514,-247.5 514,-241.5 514,-241.5 514,-144.5 514,-144.5 514,-138.5 520,-132.5 526,-132.5"/>
<text text-anchor="start" x="530.5" y="-240.7" font-family="Arial Bold" font-size="11.00" fill="#000000">ActiveStorage::Blob</text>
<polyline fill="none" stroke="#000000" points="514,-233.5 658,-233.5 "/>
<text text-anchor="start" x="521" y="-220" font-family="Arial" font-size="10.00" fill="#000000">byte_size </text>
<text text-anchor="start" x="567" y="-220" font-family="Arial Italic" font-size="10.00" fill="#999999">integer (8) ∗</text>
<text text-anchor="start" x="521" y="-207" font-family="Arial" font-size="10.00" fill="#000000">checksum </text>
<text text-anchor="start" x="570" y="-207" font-family="Arial Italic" font-size="10.00" fill="#999999">string ∗</text>
<text text-anchor="start" x="521" y="-194" font-family="Arial" font-size="10.00" fill="#000000">content_type </text>
<text text-anchor="start" x="581" y="-194" font-family="Arial Italic" font-size="10.00" fill="#999999">string</text>
<text text-anchor="start" x="521" y="-181" font-family="Arial" font-size="10.00" fill="#000000">filename </text>
<text text-anchor="start" x="561" y="-181" font-family="Arial Italic" font-size="10.00" fill="#999999">string ∗</text>
<text text-anchor="start" x="521" y="-168" font-family="Arial" font-size="10.00" fill="#000000">id </text>
<text text-anchor="start" x="532" y="-168" font-family="Arial Italic" font-size="10.00" fill="#999999">integer (8) PK</text>
<text text-anchor="start" x="521" y="-155" font-family="Arial" font-size="10.00" fill="#000000">key </text>
<text text-anchor="start" x="540" y="-155" font-family="Arial Italic" font-size="10.00" fill="#999999">string ∗</text>
<text text-anchor="start" x="521" y="-142" font-family="Arial" font-size="10.00" fill="#000000">metadata </text>
<text text-anchor="start" x="565" y="-142" font-family="Arial Italic" font-size="10.00" fill="#999999">text (65535)</text>
</g>
<!-- m_ActiveStorage::Blob&#45;&gt;m_ActiveStorage::Attachment -->
<g id="edge3" class="edge">
<title>m_ActiveStorage::Blob&#45;&gt;m_ActiveStorage::Attachment</title>
<path fill="none" stroke="#000000" d="M586,-132.3471C586,-120.0855 586,-107.3592 586,-95.6228"/>
</g>
<!-- m_ActiveStorage::Blob&#45;&gt;m_ActiveStorage::Blob -->
<g id="edge20" class="edge">
<title>m_ActiveStorage::Blob&#45;&gt;m_ActiveStorage::Blob</title>
<path fill="none" stroke="#000000" stroke-dasharray="1,5" d="M658.1757,-219.4051C674.7932,-217.1298 687,-208.3281 687,-193 687,-177.6719 674.7932,-168.8702 658.1757,-166.5949"/>
</g>
<!-- m_AuthenticateToken -->
<g id="node3" class="node">
<title>m_AuthenticateToken</title>
<path fill="none" stroke="#000000" d="M459,-297C459,-297 579,-297 579,-297 585,-297 591,-303 591,-309 591,-309 591,-380 591,-380 591,-386 585,-392 579,-392 579,-392 459,-392 459,-392 453,-392 447,-386 447,-380 447,-380 447,-309 447,-309 447,-303 453,-297 459,-297"/>
<text text-anchor="start" x="467.5" y="-379.2" font-family="Arial Bold" font-size="11.00" fill="#000000">AuthenticateToken</text>
<polyline fill="none" stroke="#000000" points="447,-372 591,-372 "/>
<text text-anchor="start" x="454" y="-358.5" font-family="Arial" font-size="10.00" fill="#000000">active </text>
<text text-anchor="start" x="484" y="-358.5" font-family="Arial Italic" font-size="10.00" fill="#999999">boolean (0)</text>
<text text-anchor="start" x="454" y="-345.5" font-family="Arial" font-size="10.00" fill="#000000">id </text>
<text text-anchor="start" x="465" y="-345.5" font-family="Arial Italic" font-size="10.00" fill="#999999">integer (8) PK</text>
<text text-anchor="start" x="454" y="-332.5" font-family="Arial" font-size="10.00" fill="#000000">last_access </text>
<text text-anchor="start" x="510" y="-332.5" font-family="Arial Italic" font-size="10.00" fill="#999999">datetime (0,0)</text>
<text text-anchor="start" x="454" y="-319.5" font-family="Arial" font-size="10.00" fill="#000000">token </text>
<text text-anchor="start" x="482" y="-319.5" font-family="Arial Italic" font-size="10.00" fill="#999999">string</text>
<text text-anchor="start" x="454" y="-306.5" font-family="Arial" font-size="10.00" fill="#000000">user_id </text>
<text text-anchor="start" x="489" y="-306.5" font-family="Arial Italic" font-size="10.00" fill="#999999">integer (8) FK</text>
</g>
<!-- m_Group -->
<g id="node4" class="node">
<title>m_Group</title>
<path fill="none" stroke="#000000" d="M185,-448.5C185,-448.5 305,-448.5 305,-448.5 311,-448.5 317,-454.5 317,-460.5 317,-460.5 317,-557.5 317,-557.5 317,-563.5 311,-569.5 305,-569.5 305,-569.5 185,-569.5 185,-569.5 179,-569.5 173,-563.5 173,-557.5 173,-557.5 173,-460.5 173,-460.5 173,-454.5 179,-448.5 185,-448.5"/>
<text text-anchor="start" x="226" y="-556.7" font-family="Arial Bold" font-size="11.00" fill="#000000">Group</text>
<polyline fill="none" stroke="#000000" points="173,-549.5 317,-549.5 "/>
<text text-anchor="start" x="180" y="-536" font-family="Arial" font-size="10.00" fill="#000000">depth_score </text>
<text text-anchor="start" x="237" y="-536" font-family="Arial Italic" font-size="10.00" fill="#999999">float</text>
<text text-anchor="start" x="180" y="-523" font-family="Arial" font-size="10.00" fill="#000000">frequency </text>
<text text-anchor="start" x="226" y="-523" font-family="Arial Italic" font-size="10.00" fill="#999999">float</text>
<text text-anchor="start" x="180" y="-510" font-family="Arial" font-size="10.00" fill="#000000">id </text>
<text text-anchor="start" x="191" y="-510" font-family="Arial Italic" font-size="10.00" fill="#999999">integer (8) PK</text>
<text text-anchor="start" x="180" y="-497" font-family="Arial" font-size="10.00" fill="#000000">independency </text>
<text text-anchor="start" x="244" y="-497" font-family="Arial Italic" font-size="10.00" fill="#999999">float</text>
<text text-anchor="start" x="180" y="-484" font-family="Arial" font-size="10.00" fill="#000000">name </text>
<text text-anchor="start" x="208" y="-484" font-family="Arial Italic" font-size="10.00" fill="#999999">string</text>
<text text-anchor="start" x="180" y="-471" font-family="Arial" font-size="10.00" fill="#000000">parent_id </text>
<text text-anchor="start" x="223" y="-471" font-family="Arial Italic" font-size="10.00" fill="#999999">integer FK</text>
<text text-anchor="start" x="180" y="-458" font-family="Arial" font-size="10.00" fill="#000000">score </text>
<text text-anchor="start" x="208" y="-458" font-family="Arial Italic" font-size="10.00" fill="#999999">float</text>
</g>
<!-- m_Group&#45;&gt;m_Group -->
<g id="edge9" class="edge">
<title>m_Group&#45;&gt;m_Group</title>
<path fill="none" stroke="#000000" d="M317.1757,-539.0725C333.7932,-536.4812 346,-526.457 346,-509 346,-494.8162 337.9416,-485.5392 326.0064,-481.1691"/>
<polygon fill="#000000" stroke="#000000" points="326.674,-478.0887 317.1757,-478.9275 325.124,-484.1951 326.674,-478.0887"/>
</g>
<!-- m_GroupUser -->
<g id="node5" class="node">
<title>m_GroupUser</title>
<path fill="none" stroke="#000000" d="M286,-290.5C286,-290.5 406,-290.5 406,-290.5 412,-290.5 418,-296.5 418,-302.5 418,-302.5 418,-386.5 418,-386.5 418,-392.5 412,-398.5 406,-398.5 406,-398.5 286,-398.5 286,-398.5 280,-398.5 274,-392.5 274,-386.5 274,-386.5 274,-302.5 274,-302.5 274,-296.5 280,-290.5 286,-290.5"/>
<text text-anchor="start" x="314.5" y="-385.7" font-family="Arial Bold" font-size="11.00" fill="#000000">GroupUser</text>
<polyline fill="none" stroke="#000000" points="274,-378.5 418,-378.5 "/>
<text text-anchor="start" x="281" y="-365.5" font-family="Arial" font-size="10.00" fill="#000000">admin </text>
<text text-anchor="start" x="311" y="-365.5" font-family="Arial Italic" font-size="10.00" fill="#999999">boolean (0) ∗</text>
<text text-anchor="start" x="281" y="-352.5" font-family="Arial" font-size="10.00" fill="#000000">group_id </text>
<text text-anchor="start" x="321" y="-352.5" font-family="Arial Italic" font-size="10.00" fill="#999999">integer (8) FK</text>
<text text-anchor="start" x="281" y="-339.5" font-family="Arial" font-size="10.00" fill="#000000">id </text>
<text text-anchor="start" x="292" y="-339.5" font-family="Arial Italic" font-size="10.00" fill="#999999">integer (8) PK</text>
<text text-anchor="start" x="281" y="-326.5" font-family="Arial" font-size="10.00" fill="#000000">image </text>
<text text-anchor="start" x="311" y="-326.5" font-family="Arial Italic" font-size="10.00" fill="#999999">string</text>
<text text-anchor="start" x="281" y="-313.5" font-family="Arial" font-size="10.00" fill="#000000">name </text>
<text text-anchor="start" x="309" y="-313.5" font-family="Arial Italic" font-size="10.00" fill="#999999">string ∗</text>
<text text-anchor="start" x="281" y="-300.5" font-family="Arial" font-size="10.00" fill="#000000">user_id </text>
<text text-anchor="start" x="316" y="-300.5" font-family="Arial Italic" font-size="10.00" fill="#999999">integer (8) FK</text>
</g>
<!-- m_Group&#45;&gt;m_GroupUser -->
<g id="edge1" class="edge">
<title>m_Group&#45;&gt;m_GroupUser</title>
<path fill="none" stroke="#000000" d="M282.3217,-448.2136C290.6831,-434.5953 299.5628,-420.1328 307.9533,-406.4671"/>
<polygon fill="#000000" stroke="#000000" points="310.8047,-407.8433 312.8294,-398.5254 305.4359,-404.547 310.8047,-407.8433"/>
</g>
<!-- m_GroupWord -->
<g id="node6" class="node">
<title>m_GroupWord</title>
<path fill="none" stroke="#000000" d="M40,-310C40,-310 160,-310 160,-310 166,-310 172,-316 172,-322 172,-322 172,-367 172,-367 172,-373 166,-379 160,-379 160,-379 40,-379 40,-379 34,-379 28,-373 28,-367 28,-367 28,-322 28,-322 28,-316 34,-310 40,-310"/>
<text text-anchor="start" x="66.5" y="-366.2" font-family="Arial Bold" font-size="11.00" fill="#000000">GroupWord</text>
<polyline fill="none" stroke="#000000" points="28,-359 172,-359 "/>
<text text-anchor="start" x="35" y="-345.5" font-family="Arial" font-size="10.00" fill="#000000">group_id </text>
<text text-anchor="start" x="75" y="-345.5" font-family="Arial Italic" font-size="10.00" fill="#999999">integer (8) FK</text>
<text text-anchor="start" x="35" y="-332.5" font-family="Arial" font-size="10.00" fill="#000000">id </text>
<text text-anchor="start" x="46" y="-332.5" font-family="Arial Italic" font-size="10.00" fill="#999999">integer (8) PK</text>
<text text-anchor="start" x="35" y="-319.5" font-family="Arial" font-size="10.00" fill="#000000">word_id </text>
<text text-anchor="start" x="72" y="-319.5" font-family="Arial Italic" font-size="10.00" fill="#999999">integer (8) FK</text>
</g>
<!-- m_Group&#45;&gt;m_GroupWord -->
<g id="edge11" class="edge">
<title>m_Group&#45;&gt;m_GroupWord</title>
<path fill="none" stroke="#000000" d="M191.4193,-448.2136C173.1693,-427.5094 153.1997,-404.8541 136.5927,-386.0137"/>
<polygon fill="#000000" stroke="#000000" points="138.9501,-383.9245 130.6358,-379.2558 134.224,-388.0903 138.9501,-383.9245"/>
</g>
<!-- m_Post -->
<g id="node8" class="node">
<title>m_Post</title>
<path fill="none" stroke="#000000" d="M286,-139C286,-139 406,-139 406,-139 412,-139 418,-145 418,-151 418,-151 418,-235 418,-235 418,-241 412,-247 406,-247 406,-247 286,-247 286,-247 280,-247 274,-241 274,-235 274,-235 274,-151 274,-151 274,-145 280,-139 286,-139"/>
<text text-anchor="start" x="331.5" y="-234.2" font-family="Arial Bold" font-size="11.00" fill="#000000">Post</text>
<polyline fill="none" stroke="#000000" points="274,-227 418,-227 "/>
<text text-anchor="start" x="281" y="-214" font-family="Arial" font-size="10.00" fill="#000000">content </text>
<text text-anchor="start" x="317" y="-214" font-family="Arial Italic" font-size="10.00" fill="#999999">text (65535)</text>
<text text-anchor="start" x="281" y="-201" font-family="Arial" font-size="10.00" fill="#000000">group_id </text>
<text text-anchor="start" x="321" y="-201" font-family="Arial Italic" font-size="10.00" fill="#999999">integer (8) FK</text>
<text text-anchor="start" x="281" y="-188" font-family="Arial" font-size="10.00" fill="#000000">group_user_id </text>
<text text-anchor="start" x="345" y="-188" font-family="Arial Italic" font-size="10.00" fill="#999999">integer FK</text>
<text text-anchor="start" x="281" y="-175" font-family="Arial" font-size="10.00" fill="#000000">id </text>
<text text-anchor="start" x="292" y="-175" font-family="Arial Italic" font-size="10.00" fill="#999999">integer (8) PK</text>
<text text-anchor="start" x="281" y="-162" font-family="Arial" font-size="10.00" fill="#000000">image </text>
<text text-anchor="start" x="311" y="-162" font-family="Arial Italic" font-size="10.00" fill="#999999">string</text>
<text text-anchor="start" x="281" y="-149" font-family="Arial" font-size="10.00" fill="#000000">parent_id </text>
<text text-anchor="start" x="324" y="-149" font-family="Arial Italic" font-size="10.00" fill="#999999">integer FK</text>
</g>
<!-- m_Group&#45;&gt;m_Post -->
<g id="edge13" class="edge">
<title>m_Group&#45;&gt;m_Post</title>
<path fill="none" stroke="#000000" d="M238.474,-448.4974C236.0011,-403.1176 237.8374,-340.4092 259,-290 264.2796,-277.4241 271.8981,-265.3914 280.461,-254.3437"/>
<polygon fill="#000000" stroke="#000000" points="283.0026,-256.2101 286.2093,-247.2301 278.1025,-252.2504 283.0026,-256.2101"/>
</g>
<!-- m_User -->
<g id="node9" class="node">
<title>m_User</title>
<path fill="none" stroke="#000000" d="M459,-435.5C459,-435.5 579,-435.5 579,-435.5 585,-435.5 591,-441.5 591,-447.5 591,-447.5 591,-570.5 591,-570.5 591,-576.5 585,-582.5 579,-582.5 579,-582.5 459,-582.5 459,-582.5 453,-582.5 447,-576.5 447,-570.5 447,-570.5 447,-447.5 447,-447.5 447,-441.5 453,-435.5 459,-435.5"/>
<text text-anchor="start" x="504.5" y="-569.7" font-family="Arial Bold" font-size="11.00" fill="#000000">User</text>
<polyline fill="none" stroke="#000000" points="447,-562.5 591,-562.5 "/>
<text text-anchor="start" x="454" y="-549" font-family="Arial" font-size="10.00" fill="#000000">bio </text>
<text text-anchor="start" x="470" y="-549" font-family="Arial Italic" font-size="10.00" fill="#999999">text (65535)</text>
<text text-anchor="start" x="454" y="-536" font-family="Arial" font-size="10.00" fill="#000000">email </text>
<text text-anchor="start" x="481" y="-536" font-family="Arial Italic" font-size="10.00" fill="#999999">string</text>
<text text-anchor="start" x="454" y="-523" font-family="Arial" font-size="10.00" fill="#000000">id </text>
<text text-anchor="start" x="465" y="-523" font-family="Arial Italic" font-size="10.00" fill="#999999">integer (8) PK</text>
<text text-anchor="start" x="454" y="-510" font-family="Arial" font-size="10.00" fill="#000000">image </text>
<text text-anchor="start" x="484" y="-510" font-family="Arial Italic" font-size="10.00" fill="#999999">string</text>
<text text-anchor="start" x="454" y="-497" font-family="Arial" font-size="10.00" fill="#000000">name </text>
<text text-anchor="start" x="482" y="-497" font-family="Arial Italic" font-size="10.00" fill="#999999">string ∗</text>
<text text-anchor="start" x="454" y="-484" font-family="Arial" font-size="10.00" fill="#000000">oauth_token </text>
<text text-anchor="start" x="511" y="-484" font-family="Arial Italic" font-size="10.00" fill="#999999">string</text>
<text text-anchor="start" x="454" y="-471" font-family="Arial" font-size="10.00" fill="#000000">oauth_token_secret </text>
<text text-anchor="start" x="543" y="-471" font-family="Arial Italic" font-size="10.00" fill="#999999">string</text>
<text text-anchor="start" x="454" y="-458" font-family="Arial" font-size="10.00" fill="#000000">password_digest </text>
<text text-anchor="start" x="530" y="-458" font-family="Arial Italic" font-size="10.00" fill="#999999">string</text>
<text text-anchor="start" x="454" y="-445" font-family="Arial" font-size="10.00" fill="#000000">private </text>
<text text-anchor="start" x="487" y="-445" font-family="Arial Italic" font-size="10.00" fill="#999999">boolean (0) ∗</text>
</g>
<!-- m_Word -->
<g id="node10" class="node">
<title>m_Word</title>
<path fill="none" stroke="#000000" d="M12,-474.5C12,-474.5 132,-474.5 132,-474.5 138,-474.5 144,-480.5 144,-486.5 144,-486.5 144,-531.5 144,-531.5 144,-537.5 138,-543.5 132,-543.5 132,-543.5 12,-543.5 12,-543.5 6,-543.5 0,-537.5 0,-531.5 0,-531.5 0,-486.5 0,-486.5 0,-480.5 6,-474.5 12,-474.5"/>
<text text-anchor="start" x="55.5" y="-530.7" font-family="Arial Bold" font-size="11.00" fill="#000000">Word</text>
<polyline fill="none" stroke="#000000" points="0,-523.5 144,-523.5 "/>
<text text-anchor="start" x="7" y="-510" font-family="Arial" font-size="10.00" fill="#000000">id </text>
<text text-anchor="start" x="18" y="-510" font-family="Arial Italic" font-size="10.00" fill="#999999">integer (8) PK</text>
<text text-anchor="start" x="7" y="-497" font-family="Arial" font-size="10.00" fill="#000000">word </text>
<text text-anchor="start" x="31" y="-497" font-family="Arial Italic" font-size="10.00" fill="#999999">string ∗ U</text>
<text text-anchor="start" x="7" y="-484" font-family="Arial" font-size="10.00" fill="#000000">word_class </text>
<text text-anchor="start" x="59" y="-484" font-family="Arial Italic" font-size="10.00" fill="#999999">string ∗</text>
</g>
<!-- m_GroupUser&#45;&gt;m_ActiveStorage::Attachment -->
<g id="edge4" class="edge">
<title>m_GroupUser&#45;&gt;m_ActiveStorage::Attachment</title>
<path fill="none" stroke="#000000" d="M418.4472,-296.1104C423.2702,-293.8351 428.1431,-291.7681 433,-290 525.8618,-256.1937 869.4893,-291.7926 867,-193"/>
<path fill="none" stroke="#000000" d="M867,-193C864.6838,-101.077 745.1012,-67.3687 662.6979,-55.0484"/>
</g>
<!-- m_GroupUser&#45;&gt;m_ActiveStorage::Blob -->
<g id="edge7" class="edge">
<title>m_GroupUser&#45;&gt;m_ActiveStorage::Blob</title>
<path fill="none" stroke="#000000" stroke-dasharray="1,5" d="M418.0079,-299.045C448.246,-279.9572 483.3516,-257.7968 513.6285,-238.6845"/>
</g>
<!-- m_GroupUser&#45;&gt;m_Post -->
<g id="edge8" class="edge">
<title>m_GroupUser&#45;&gt;m_Post</title>
<path fill="none" stroke="#000000" d="M346,-290.2329C346,-279.2882 346,-267.6911 346,-256.464"/>
<polygon fill="#000000" stroke="#000000" points="349.1501,-256.1426 346,-247.1427 342.8501,-256.1427 349.1501,-256.1426"/>
</g>
<!-- m_Notification -->
<g id="node7" class="node">
<title>m_Notification</title>
<path fill="none" stroke="#000000" d="M691,-297C691,-297 811,-297 811,-297 817,-297 823,-303 823,-309 823,-309 823,-380 823,-380 823,-386 817,-392 811,-392 811,-392 691,-392 691,-392 685,-392 679,-386 679,-380 679,-380 679,-309 679,-309 679,-303 685,-297 691,-297"/>
<text text-anchor="start" x="718.5" y="-379.2" font-family="Arial Bold" font-size="11.00" fill="#000000">Notification</text>
<polyline fill="none" stroke="#000000" points="679,-372 823,-372 "/>
<text text-anchor="start" x="686" y="-358.5" font-family="Arial" font-size="10.00" fill="#000000">content </text>
<text text-anchor="start" x="722" y="-358.5" font-family="Arial Italic" font-size="10.00" fill="#999999">text (65535)</text>
<text text-anchor="start" x="686" y="-345.5" font-family="Arial" font-size="10.00" fill="#000000">id </text>
<text text-anchor="start" x="697" y="-345.5" font-family="Arial Italic" font-size="10.00" fill="#999999">integer (8) PK</text>
<text text-anchor="start" x="686" y="-332.5" font-family="Arial" font-size="10.00" fill="#000000">image </text>
<text text-anchor="start" x="716" y="-332.5" font-family="Arial Italic" font-size="10.00" fill="#999999">text (65535)</text>
<text text-anchor="start" x="686" y="-319.5" font-family="Arial" font-size="10.00" fill="#000000">url </text>
<text text-anchor="start" x="700" y="-319.5" font-family="Arial Italic" font-size="10.00" fill="#999999">text (65535)</text>
<text text-anchor="start" x="686" y="-306.5" font-family="Arial" font-size="10.00" fill="#000000">user_id </text>
<text text-anchor="start" x="721" y="-306.5" font-family="Arial Italic" font-size="10.00" fill="#999999">integer (8) FK</text>
</g>
<!-- m_Post&#45;&gt;m_ActiveStorage::Attachment -->
<g id="edge5" class="edge">
<title>m_Post&#45;&gt;m_ActiveStorage::Attachment</title>
<path fill="none" stroke="#000000" d="M418.0079,-149.4952C446.8652,-132.0606 480.1557,-111.9476 509.4517,-94.248"/>
</g>
<!-- m_Post&#45;&gt;m_Post -->
<g id="edge18" class="edge">
<title>m_Post&#45;&gt;m_Post</title>
<path fill="none" stroke="#000000" d="M418.1757,-219.4051C434.7932,-217.1298 447,-208.3281 447,-193 447,-180.5459 438.9416,-172.4003 427.0064,-168.5631"/>
<polygon fill="#000000" stroke="#000000" points="427.6454,-165.4783 418.1757,-166.5949 426.2748,-171.6274 427.6454,-165.4783"/>
</g>
<!-- m_User&#45;&gt;m_ActiveStorage::Attachment -->
<g id="edge6" class="edge">
<title>m_User&#45;&gt;m_ActiveStorage::Attachment</title>
<path fill="none" stroke="#000000" d="M591.3519,-493.2826C675.2827,-473.5365 806.2376,-437.5393 838,-399 896.803,-327.6505 869.329,-285.429 867,-193"/>
</g>
<!-- m_User&#45;&gt;m_ActiveStorage::Blob -->
<g id="edge16" class="edge">
<title>m_User&#45;&gt;m_ActiveStorage::Blob</title>
<path fill="none" stroke="#000000" stroke-dasharray="1,5" d="M587.5455,-435.4435C595.0788,-423.9402 601.6025,-411.649 606,-399 622.3421,-351.9938 615.1475,-295.554 605.1005,-253.6467"/>
</g>
<!-- m_User&#45;&gt;m_AuthenticateToken -->
<g id="edge17" class="edge">
<title>m_User&#45;&gt;m_AuthenticateToken</title>
<path fill="none" stroke="#000000" d="M519,-435.4105C519,-423.9154 519,-412.1921 519,-401.1523"/>
<polygon fill="#000000" stroke="#000000" points="522.1501,-401.0595 519,-392.0595 515.8501,-401.0595 522.1501,-401.0595"/>
</g>
<!-- m_User&#45;&gt;m_GroupUser -->
<g id="edge2" class="edge">
<title>m_User&#45;&gt;m_GroupUser</title>
<path fill="none" stroke="#000000" d="M446.8851,-440.4284C434.5253,-428.6758 421.7623,-416.5399 409.644,-405.017"/>
<polygon fill="#000000" stroke="#000000" points="411.6774,-402.6038 402.9846,-398.6848 407.3362,-407.1693 411.6774,-402.6038"/>
</g>
<!-- m_User&#45;&gt;m_Notification -->
<g id="edge15" class="edge">
<title>m_User&#45;&gt;m_Notification</title>
<path fill="none" stroke="#000000" d="M591.1345,-457.8529C618.1263,-438.7143 648.8342,-416.9408 676.0727,-397.6273"/>
<polygon fill="#000000" stroke="#000000" points="678.1377,-400.0247 683.6574,-392.2494 674.4937,-394.8855 678.1377,-400.0247"/>
</g>
<!-- m_Word&#45;&gt;m_GroupWord -->
<g id="edge14" class="edge">
<title>m_Word&#45;&gt;m_GroupWord</title>
<path fill="none" stroke="#000000" d="M77.9381,-474.1138C82.203,-449.0575 87.9821,-415.1054 92.5556,-388.236"/>
<polygon fill="#000000" stroke="#000000" points="95.7136,-388.4545 94.1186,-379.0535 89.5029,-387.3973 95.7136,-388.4545"/>
</g>
</g>
</svg>
