<?xml version="1.0" encoding="UTF-8" standalone="no"?>
<!DOCTYPE svg PUBLIC "-//W3C//DTD SVG 1.1//EN"
 "http://www.w3.org/Graphics/SVG/1.1/DTD/svg11.dtd">
<!-- Generated by graphviz version 2.40.1 (20161225.0304)
 -->
<!-- Title: App Pages: 1 -->
<svg width="702pt" height="678pt"
 viewBox="0.00 0.00 701.60 677.60" xmlns="http://www.w3.org/2000/svg" xmlns:xlink="http://www.w3.org/1999/xlink">
<g id="graph0" class="graph" transform="scale(1 1) rotate(0) translate(28.8 648.8)">
<title>App</title>
<polygon fill="#ffffff" stroke="transparent" points="-28.8,28.8 -28.8,-648.8 672.8,-648.8 672.8,28.8 -28.8,28.8"/>
<text text-anchor="middle" x="322" y="-605.6" font-family="Arial Bold" font-size="13.00" fill="#000000">App domain model</text>
<!-- m_ActiveStorage::Attachment -->
<g id="node1" class="node">
<title>m_ActiveStorage::Attachment</title>
<path fill="none" stroke="#000000" d="M199.5,-.5C199.5,-.5 328.5,-.5 328.5,-.5 334.5,-.5 340.5,-6.5 340.5,-12.5 340.5,-12.5 340.5,-83.5 340.5,-83.5 340.5,-89.5 334.5,-95.5 328.5,-95.5 328.5,-95.5 199.5,-95.5 199.5,-95.5 193.5,-95.5 187.5,-89.5 187.5,-83.5 187.5,-83.5 187.5,-12.5 187.5,-12.5 187.5,-6.5 193.5,-.5 199.5,-.5"/>
<text text-anchor="start" x="193" y="-82.7" font-family="Arial Bold" font-size="11.00" fill="#000000">ActiveStorage::Attachment</text>
<polyline fill="none" stroke="#000000" points="187.5,-75.5 340.5,-75.5 "/>
<text text-anchor="start" x="199" y="-62" font-family="Arial" font-size="10.00" fill="#000000">blob_id </text>
<text text-anchor="start" x="233" y="-62" font-family="Arial Italic" font-size="10.00" fill="#999999">integer (8) ∗ FK</text>
<text text-anchor="start" x="199" y="-49" font-family="Arial" font-size="10.00" fill="#000000">id </text>
<text text-anchor="start" x="210" y="-49" font-family="Arial Italic" font-size="10.00" fill="#999999">integer (8) PK</text>
<text text-anchor="start" x="199" y="-36" font-family="Arial" font-size="10.00" fill="#000000">name </text>
<text text-anchor="start" x="227" y="-36" font-family="Arial Italic" font-size="10.00" fill="#999999">string ∗</text>
<text text-anchor="start" x="199" y="-23" font-family="Arial" font-size="10.00" fill="#000000">record_id </text>
<text text-anchor="start" x="242" y="-23" font-family="Arial Italic" font-size="10.00" fill="#999999">integer (8) ∗ FK</text>
<text text-anchor="start" x="199" y="-10" font-family="Arial" font-size="10.00" fill="#000000">record_type </text>
<text text-anchor="start" x="254" y="-10" font-family="Arial Italic" font-size="10.00" fill="#999999">string ∗</text>
</g>
<!-- m_ActiveStorage::Blob -->
<g id="node2" class="node">
<title>m_ActiveStorage::Blob</title>
<path fill="none" stroke="#000000" d="M12,-132.5C12,-132.5 132,-132.5 132,-132.5 138,-132.5 144,-138.5 144,-144.5 144,-144.5 144,-241.5 144,-241.5 144,-247.5 138,-253.5 132,-253.5 132,-253.5 12,-253.5 12,-253.5 6,-253.5 0,-247.5 0,-241.5 0,-241.5 0,-144.5 0,-144.5 0,-138.5 6,-132.5 12,-132.5"/>
<text text-anchor="start" x="16.5" y="-240.7" font-family="Arial Bold" font-size="11.00" fill="#000000">ActiveStorage::Blob</text>
<polyline fill="none" stroke="#000000" points="0,-233.5 144,-233.5 "/>
<text text-anchor="start" x="7" y="-220" font-family="Arial" font-size="10.00" fill="#000000">byte_size </text>
<text text-anchor="start" x="53" y="-220" font-family="Arial Italic" font-size="10.00" fill="#999999">integer (8) ∗</text>
<text text-anchor="start" x="7" y="-207" font-family="Arial" font-size="10.00" fill="#000000">checksum </text>
<text text-anchor="start" x="56" y="-207" font-family="Arial Italic" font-size="10.00" fill="#999999">string ∗</text>
<text text-anchor="start" x="7" y="-194" font-family="Arial" font-size="10.00" fill="#000000">content_type </text>
<text text-anchor="start" x="67" y="-194" font-family="Arial Italic" font-size="10.00" fill="#999999">string</text>
<text text-anchor="start" x="7" y="-181" font-family="Arial" font-size="10.00" fill="#000000">filename </text>
<text text-anchor="start" x="47" y="-181" font-family="Arial Italic" font-size="10.00" fill="#999999">string ∗</text>
<text text-anchor="start" x="7" y="-168" font-family="Arial" font-size="10.00" fill="#000000">id </text>
<text text-anchor="start" x="18" y="-168" font-family="Arial Italic" font-size="10.00" fill="#999999">integer (8) PK</text>
<text text-anchor="start" x="7" y="-155" font-family="Arial" font-size="10.00" fill="#000000">key </text>
<text text-anchor="start" x="26" y="-155" font-family="Arial Italic" font-size="10.00" fill="#999999">string ∗</text>
<text text-anchor="start" x="7" y="-142" font-family="Arial" font-size="10.00" fill="#000000">metadata </text>
<text text-anchor="start" x="51" y="-142" font-family="Arial Italic" font-size="10.00" fill="#999999">text (65535)</text>
</g>
<!-- m_ActiveStorage::Blob&#45;&gt;m_ActiveStorage::Attachment -->
<g id="edge3" class="edge">
<title>m_ActiveStorage::Blob&#45;&gt;m_ActiveStorage::Attachment</title>
<path fill="none" stroke="#000000" d="M144.04,-138.5948C162.7677,-124.4514 182.7951,-109.3266 201.0157,-95.5663"/>
</g>
<!-- m_ActiveStorage::Blob&#45;&gt;m_ActiveStorage::Blob -->
<g id="edge17" class="edge">
<title>m_ActiveStorage::Blob&#45;&gt;m_ActiveStorage::Blob</title>
<path fill="none" stroke="#000000" stroke-dasharray="1,5" d="M144.1757,-219.4051C160.7932,-217.1298 173,-208.3281 173,-193 173,-177.6719 160.7932,-168.8702 144.1757,-166.5949"/>
</g>
<!-- m_AuthenticateToken -->
<g id="node3" class="node">
<title>m_AuthenticateToken</title>
<path fill="none" stroke="#000000" d="M512,-297C512,-297 632,-297 632,-297 638,-297 644,-303 644,-309 644,-309 644,-380 644,-380 644,-386 638,-392 632,-392 632,-392 512,-392 512,-392 506,-392 500,-386 500,-380 500,-380 500,-309 500,-309 500,-303 506,-297 512,-297"/>
<text text-anchor="start" x="520.5" y="-379.2" font-family="Arial Bold" font-size="11.00" fill="#000000">AuthenticateToken</text>
<polyline fill="none" stroke="#000000" points="500,-372 644,-372 "/>
<text text-anchor="start" x="507" y="-358.5" font-family="Arial" font-size="10.00" fill="#000000">active </text>
<text text-anchor="start" x="537" y="-358.5" font-family="Arial Italic" font-size="10.00" fill="#999999">boolean (0)</text>
<text text-anchor="start" x="507" y="-345.5" font-family="Arial" font-size="10.00" fill="#000000">id </text>
<text text-anchor="start" x="518" y="-345.5" font-family="Arial Italic" font-size="10.00" fill="#999999">integer (8) PK</text>
<text text-anchor="start" x="507" y="-332.5" font-family="Arial" font-size="10.00" fill="#000000">last_access </text>
<text text-anchor="start" x="563" y="-332.5" font-family="Arial Italic" font-size="10.00" fill="#999999">datetime (0,0)</text>
<text text-anchor="start" x="507" y="-319.5" font-family="Arial" font-size="10.00" fill="#000000">token </text>
<text text-anchor="start" x="535" y="-319.5" font-family="Arial Italic" font-size="10.00" fill="#999999">string</text>
<text text-anchor="start" x="507" y="-306.5" font-family="Arial" font-size="10.00" fill="#000000">user_id </text>
<text text-anchor="start" x="542" y="-306.5" font-family="Arial Italic" font-size="10.00" fill="#999999">integer (8) FK</text>
</g>
<!-- m_Group -->
<g id="node4" class="node">
<title>m_Group</title>
<path fill="none" stroke="#000000" d="M155,-474.5C155,-474.5 275,-474.5 275,-474.5 281,-474.5 287,-480.5 287,-486.5 287,-486.5 287,-531.5 287,-531.5 287,-537.5 281,-543.5 275,-543.5 275,-543.5 155,-543.5 155,-543.5 149,-543.5 143,-537.5 143,-531.5 143,-531.5 143,-486.5 143,-486.5 143,-480.5 149,-474.5 155,-474.5"/>
<text text-anchor="start" x="196" y="-530.7" font-family="Arial Bold" font-size="11.00" fill="#000000">Group</text>
<polyline fill="none" stroke="#000000" points="143,-523.5 287,-523.5 "/>
<text text-anchor="start" x="150" y="-510" font-family="Arial" font-size="10.00" fill="#000000">id </text>
<text text-anchor="start" x="161" y="-510" font-family="Arial Italic" font-size="10.00" fill="#999999">integer (8) PK</text>
<text text-anchor="start" x="150" y="-497" font-family="Arial" font-size="10.00" fill="#000000">name </text>
<text text-anchor="start" x="178" y="-497" font-family="Arial Italic" font-size="10.00" fill="#999999">string</text>
<text text-anchor="start" x="150" y="-484" font-family="Arial" font-size="10.00" fill="#000000">parent_id </text>
<text text-anchor="start" x="193" y="-484" font-family="Arial Italic" font-size="10.00" fill="#999999">integer FK</text>
</g>
<!-- m_Group&#45;&gt;m_Group -->
<g id="edge9" class="edge">
<title>m_Group&#45;&gt;m_Group</title>
<path fill="none" stroke="#000000" d="M287.1757,-539.0725C303.7932,-536.4812 316,-526.457 316,-509 316,-494.8162 307.9416,-485.5392 296.0064,-481.1691"/>
<polygon fill="#000000" stroke="#000000" points="296.674,-478.0887 287.1757,-478.9275 295.124,-484.1951 296.674,-478.0887"/>
</g>
<!-- m_GroupUser -->
<g id="node5" class="node">
<title>m_GroupUser</title>
<path fill="none" stroke="#000000" d="M280,-290.5C280,-290.5 400,-290.5 400,-290.5 406,-290.5 412,-296.5 412,-302.5 412,-302.5 412,-386.5 412,-386.5 412,-392.5 406,-398.5 400,-398.5 400,-398.5 280,-398.5 280,-398.5 274,-398.5 268,-392.5 268,-386.5 268,-386.5 268,-302.5 268,-302.5 268,-296.5 274,-290.5 280,-290.5"/>
<text text-anchor="start" x="308.5" y="-385.7" font-family="Arial Bold" font-size="11.00" fill="#000000">GroupUser</text>
<polyline fill="none" stroke="#000000" points="268,-378.5 412,-378.5 "/>
<text text-anchor="start" x="275" y="-365.5" font-family="Arial" font-size="10.00" fill="#000000">admin </text>
<text text-anchor="start" x="305" y="-365.5" font-family="Arial Italic" font-size="10.00" fill="#999999">boolean (0) ∗</text>
<text text-anchor="start" x="275" y="-352.5" font-family="Arial" font-size="10.00" fill="#000000">group_id </text>
<text text-anchor="start" x="315" y="-352.5" font-family="Arial Italic" font-size="10.00" fill="#999999">integer (8) FK</text>
<text text-anchor="start" x="275" y="-339.5" font-family="Arial" font-size="10.00" fill="#000000">id </text>
<text text-anchor="start" x="286" y="-339.5" font-family="Arial Italic" font-size="10.00" fill="#999999">integer (8) PK</text>
<text text-anchor="start" x="275" y="-326.5" font-family="Arial" font-size="10.00" fill="#000000">image </text>
<text text-anchor="start" x="305" y="-326.5" font-family="Arial Italic" font-size="10.00" fill="#999999">string</text>
<text text-anchor="start" x="275" y="-313.5" font-family="Arial" font-size="10.00" fill="#000000">name </text>
<text text-anchor="start" x="303" y="-313.5" font-family="Arial Italic" font-size="10.00" fill="#999999">string ∗</text>
<text text-anchor="start" x="275" y="-300.5" font-family="Arial" font-size="10.00" fill="#000000">user_id </text>
<text text-anchor="start" x="310" y="-300.5" font-family="Arial Italic" font-size="10.00" fill="#999999">integer (8) FK</text>
</g>
<!-- m_Group&#45;&gt;m_GroupUser -->
<g id="edge1" class="edge">
<title>m_Group&#45;&gt;m_GroupUser</title>
<path fill="none" stroke="#000000" d="M241.5093,-474.1138C256.512,-454.3703 275.7117,-429.1034 293.1683,-406.1305"/>
<polygon fill="#000000" stroke="#000000" points="295.8301,-407.834 298.7672,-398.7623 290.8139,-404.0224 295.8301,-407.834"/>
</g>
<!-- m_Post -->
<g id="node6" class="node">
<title>m_Post</title>
<path fill="none" stroke="#000000" d="M262,-139C262,-139 382,-139 382,-139 388,-139 394,-145 394,-151 394,-151 394,-235 394,-235 394,-241 388,-247 382,-247 382,-247 262,-247 262,-247 256,-247 250,-241 250,-235 250,-235 250,-151 250,-151 250,-145 256,-139 262,-139"/>
<text text-anchor="start" x="307.5" y="-234.2" font-family="Arial Bold" font-size="11.00" fill="#000000">Post</text>
<polyline fill="none" stroke="#000000" points="250,-227 394,-227 "/>
<text text-anchor="start" x="257" y="-214" font-family="Arial" font-size="10.00" fill="#000000">content </text>
<text text-anchor="start" x="293" y="-214" font-family="Arial Italic" font-size="10.00" fill="#999999">text (65535)</text>
<text text-anchor="start" x="257" y="-201" font-family="Arial" font-size="10.00" fill="#000000">group_id </text>
<text text-anchor="start" x="297" y="-201" font-family="Arial Italic" font-size="10.00" fill="#999999">integer (8) FK</text>
<text text-anchor="start" x="257" y="-188" font-family="Arial" font-size="10.00" fill="#000000">group_user_id </text>
<text text-anchor="start" x="321" y="-188" font-family="Arial Italic" font-size="10.00" fill="#999999">integer FK</text>
<text text-anchor="start" x="257" y="-175" font-family="Arial" font-size="10.00" fill="#000000">id </text>
<text text-anchor="start" x="268" y="-175" font-family="Arial Italic" font-size="10.00" fill="#999999">integer (8) PK</text>
<text text-anchor="start" x="257" y="-162" font-family="Arial" font-size="10.00" fill="#000000">image </text>
<text text-anchor="start" x="287" y="-162" font-family="Arial Italic" font-size="10.00" fill="#999999">string</text>
<text text-anchor="start" x="257" y="-149" font-family="Arial" font-size="10.00" fill="#000000">parent_id </text>
<text text-anchor="start" x="300" y="-149" font-family="Arial Italic" font-size="10.00" fill="#999999">integer FK</text>
</g>
<!-- m_Group&#45;&gt;m_Post -->
<g id="edge11" class="edge">
<title>m_Group&#45;&gt;m_Post</title>
<path fill="none" stroke="#000000" d="M216.5557,-474.3213C219.5655,-430.0192 228.363,-351.6964 254,-290 258.9693,-278.0411 265.6082,-266.0966 272.7946,-254.883"/>
<polygon fill="#000000" stroke="#000000" points="275.5081,-256.4903 277.8434,-247.2453 270.2526,-253.0161 275.5081,-256.4903"/>
</g>
<!-- m_User -->
<g id="node7" class="node">
<title>m_User</title>
<path fill="none" stroke="#000000" d="M396,-435.5C396,-435.5 516,-435.5 516,-435.5 522,-435.5 528,-441.5 528,-447.5 528,-447.5 528,-570.5 528,-570.5 528,-576.5 522,-582.5 516,-582.5 516,-582.5 396,-582.5 396,-582.5 390,-582.5 384,-576.5 384,-570.5 384,-570.5 384,-447.5 384,-447.5 384,-441.5 390,-435.5 396,-435.5"/>
<text text-anchor="start" x="441.5" y="-569.7" font-family="Arial Bold" font-size="11.00" fill="#000000">User</text>
<polyline fill="none" stroke="#000000" points="384,-562.5 528,-562.5 "/>
<text text-anchor="start" x="391" y="-549" font-family="Arial" font-size="10.00" fill="#000000">bio </text>
<text text-anchor="start" x="407" y="-549" font-family="Arial Italic" font-size="10.00" fill="#999999">text (65535)</text>
<text text-anchor="start" x="391" y="-536" font-family="Arial" font-size="10.00" fill="#000000">email </text>
<text text-anchor="start" x="418" y="-536" font-family="Arial Italic" font-size="10.00" fill="#999999">string ∗ U</text>
<text text-anchor="start" x="391" y="-523" font-family="Arial" font-size="10.00" fill="#000000">id </text>
<text text-anchor="start" x="402" y="-523" font-family="Arial Italic" font-size="10.00" fill="#999999">integer (8) PK</text>
<text text-anchor="start" x="391" y="-510" font-family="Arial" font-size="10.00" fill="#000000">image </text>
<text text-anchor="start" x="421" y="-510" font-family="Arial Italic" font-size="10.00" fill="#999999">string</text>
<text text-anchor="start" x="391" y="-497" font-family="Arial" font-size="10.00" fill="#000000">name </text>
<text text-anchor="start" x="419" y="-497" font-family="Arial Italic" font-size="10.00" fill="#999999">string ∗</text>
<text text-anchor="start" x="391" y="-484" font-family="Arial" font-size="10.00" fill="#000000">oauth_token </text>
<text text-anchor="start" x="448" y="-484" font-family="Arial Italic" font-size="10.00" fill="#999999">string</text>
<text text-anchor="start" x="391" y="-471" font-family="Arial" font-size="10.00" fill="#000000">oauth_token_secret </text>
<text text-anchor="start" x="480" y="-471" font-family="Arial Italic" font-size="10.00" fill="#999999">string</text>
<text text-anchor="start" x="391" y="-458" font-family="Arial" font-size="10.00" fill="#000000">password_digest </text>
<text text-anchor="start" x="467" y="-458" font-family="Arial Italic" font-size="10.00" fill="#999999">string</text>
<text text-anchor="start" x="391" y="-445" font-family="Arial" font-size="10.00" fill="#000000">private </text>
<text text-anchor="start" x="424" y="-445" font-family="Arial Italic" font-size="10.00" fill="#999999">boolean (0) ∗</text>
</g>
<!-- m_GroupUser&#45;&gt;m_ActiveStorage::Attachment -->
<g id="edge4" class="edge">
<title>m_GroupUser&#45;&gt;m_ActiveStorage::Attachment</title>
<path fill="none" stroke="#000000" d="M267.9123,-296.5057C254.9684,-284.2866 243.2911,-270.0098 236,-254 212.8884,-203.2516 227.8717,-138.7265 243.3861,-95.5377"/>
</g>
<!-- m_GroupUser&#45;&gt;m_ActiveStorage::Blob -->
<g id="edge7" class="edge">
<title>m_GroupUser&#45;&gt;m_ActiveStorage::Blob</title>
<path fill="none" stroke="#000000" stroke-dasharray="1,5" d="M267.9653,-302.5699C260.5567,-298.307 253.1334,-294.0559 246,-290 212.6276,-271.0252 175.4827,-250.2688 144.1109,-232.8431"/>
</g>
<!-- m_GroupUser&#45;&gt;m_Post -->
<g id="edge8" class="edge">
<title>m_GroupUser&#45;&gt;m_Post</title>
<path fill="none" stroke="#000000" d="M333.5524,-290.2329C332.2391,-279.1787 330.8466,-267.4591 329.5003,-256.1273"/>
<polygon fill="#000000" stroke="#000000" points="332.6227,-255.7081 328.4328,-247.1427 326.3667,-256.4515 332.6227,-255.7081"/>
</g>
<!-- m_Post&#45;&gt;m_ActiveStorage::Attachment -->
<g id="edge5" class="edge">
<title>m_Post&#45;&gt;m_ActiveStorage::Attachment</title>
<path fill="none" stroke="#000000" d="M300.2379,-138.5948C294.5806,-124.4514 288.5306,-109.3266 283.0265,-95.5663"/>
</g>
<!-- m_Post&#45;&gt;m_Post -->
<g id="edge15" class="edge">
<title>m_Post&#45;&gt;m_Post</title>
<path fill="none" stroke="#000000" d="M394.1757,-219.4051C410.7932,-217.1298 423,-208.3281 423,-193 423,-180.5459 414.9416,-172.4003 403.0064,-168.5631"/>
<polygon fill="#000000" stroke="#000000" points="403.6454,-165.4783 394.1757,-166.5949 402.2748,-171.6274 403.6454,-165.4783"/>
</g>
<!-- m_User&#45;&gt;m_ActiveStorage::Attachment -->
<g id="edge6" class="edge">
<title>m_User&#45;&gt;m_ActiveStorage::Attachment</title>
<path fill="none" stroke="#000000" d="M456,-344.5C436.2981,-251.2385 482.0185,-209.8386 427,-132 406.3278,-102.7536 372.3462,-82.99 340.745,-70.0228"/>
</g>
<!-- m_User&#45;&gt;m_ActiveStorage::Blob -->
<g id="edge12" class="edge">
<title>m_User&#45;&gt;m_ActiveStorage::Blob</title>
<path fill="none" stroke="#000000" stroke-dasharray="1,5" d="M383.8264,-469.7436C325.983,-438.2746 254.372,-399.2965 254,-399 200.8198,-356.6149 150.4516,-297.5875 116.2427,-253.5783"/>
</g>
<!-- m_User&#45;&gt;m_AuthenticateToken -->
<g id="edge14" class="edge">
<title>m_User&#45;&gt;m_AuthenticateToken</title>
<path fill="none" stroke="#000000" d="M507.8929,-435.4105C516.4042,-423.3407 525.0928,-411.0193 533.2147,-399.5015"/>
<polygon fill="#000000" stroke="#000000" points="535.8502,-401.2301 538.4626,-392.0595 530.7016,-397.5994 535.8502,-401.2301"/>
</g>
<!-- m_User&#45;&gt;m_GroupUser -->
<g id="edge2" class="edge">
<title>m_User&#45;&gt;m_GroupUser</title>
<path fill="none" stroke="#000000" d="M404.1071,-435.4105C397.2529,-425.6905 390.2836,-415.8073 383.5879,-406.3121"/>
<polygon fill="#000000" stroke="#000000" points="386.0451,-404.3307 378.2841,-398.7908 380.8965,-407.9614 386.0451,-404.3307"/>
</g>
<!-- m_User&#45;&gt;m_Post -->
<g id="edge13" class="edge">
<title>m_User&#45;&gt;m_Post</title>
<path fill="none" stroke="#000000" d="M462.4692,-435.4426C463.3118,-406.7849 462.1981,-373.8394 456,-344.5"/>
<path fill="none" stroke="#000000" d="M456,-344.5C448.5714,-309.3355 425.6624,-278.0718 400.8392,-253.2109"/>
<polygon fill="#000000" stroke="#000000" points="402.7957,-250.7195 394.1484,-246.7013 398.4025,-255.2351 402.7957,-250.7195"/>
</g>
</g>
</svg>
