<?xml version="1.0" encoding="UTF-8" standalone="no"?>
<!DOCTYPE svg PUBLIC "-//W3C//DTD SVG 1.1//EN"
 "http://www.w3.org/Graphics/SVG/1.1/DTD/svg11.dtd">
<!-- Generated by graphviz version 2.40.1 (20161225.0304)
 -->
<!-- Title: App Pages: 1 -->
<svg width="685pt" height="507pt"
 viewBox="0.00 0.00 685.10 506.60" xmlns="http://www.w3.org/2000/svg" xmlns:xlink="http://www.w3.org/1999/xlink">
<g id="graph0" class="graph" transform="scale(1 1) rotate(0) translate(28.8 477.8)">
<title>App</title>
<polygon fill="#ffffff" stroke="transparent" points="-28.8,28.8 -28.8,-477.8 656.3,-477.8 656.3,28.8 -28.8,28.8"/>
<text text-anchor="middle" x="313.75" y="-434.6" font-family="Arial Bold" font-size="13.00" fill="#000000">App domain model</text>
<!-- m_ActiveStorage::Attachment -->
<g id="node1" class="node">
<title>m_ActiveStorage::Attachment</title>
<path fill="none" stroke="#000000" d="M12,-126C12,-126 141,-126 141,-126 147,-126 153,-132 153,-138 153,-138 153,-209 153,-209 153,-215 147,-221 141,-221 141,-221 12,-221 12,-221 6,-221 0,-215 0,-209 0,-209 0,-138 0,-138 0,-132 6,-126 12,-126"/>
<text text-anchor="start" x="5.5" y="-208.2" font-family="Arial Bold" font-size="11.00" fill="#000000">ActiveStorage::Attachment</text>
<polyline fill="none" stroke="#000000" points="0,-201 153,-201 "/>
<text text-anchor="start" x="11.5" y="-187.5" font-family="Arial" font-size="10.00" fill="#000000">blob_id </text>
<text text-anchor="start" x="45.5" y="-187.5" font-family="Arial Italic" font-size="10.00" fill="#999999">integer (8) ∗ FK</text>
<text text-anchor="start" x="11.5" y="-174.5" font-family="Arial" font-size="10.00" fill="#000000">id </text>
<text text-anchor="start" x="22.5" y="-174.5" font-family="Arial Italic" font-size="10.00" fill="#999999">integer (8) PK</text>
<text text-anchor="start" x="11.5" y="-161.5" font-family="Arial" font-size="10.00" fill="#000000">name </text>
<text text-anchor="start" x="39.5" y="-161.5" font-family="Arial Italic" font-size="10.00" fill="#999999">string ∗</text>
<text text-anchor="start" x="11.5" y="-148.5" font-family="Arial" font-size="10.00" fill="#000000">record_id </text>
<text text-anchor="start" x="54.5" y="-148.5" font-family="Arial Italic" font-size="10.00" fill="#999999">integer (8) ∗ FK</text>
<text text-anchor="start" x="11.5" y="-135.5" font-family="Arial" font-size="10.00" fill="#000000">record_type </text>
<text text-anchor="start" x="66.5" y="-135.5" font-family="Arial Italic" font-size="10.00" fill="#999999">string ∗</text>
</g>
<!-- m_ActiveStorage::Blob -->
<g id="node2" class="node">
<title>m_ActiveStorage::Blob</title>
<path fill="none" stroke="#000000" d="M16.5,-277.5C16.5,-277.5 136.5,-277.5 136.5,-277.5 142.5,-277.5 148.5,-283.5 148.5,-289.5 148.5,-289.5 148.5,-386.5 148.5,-386.5 148.5,-392.5 142.5,-398.5 136.5,-398.5 136.5,-398.5 16.5,-398.5 16.5,-398.5 10.5,-398.5 4.5,-392.5 4.5,-386.5 4.5,-386.5 4.5,-289.5 4.5,-289.5 4.5,-283.5 10.5,-277.5 16.5,-277.5"/>
<text text-anchor="start" x="21" y="-385.7" font-family="Arial Bold" font-size="11.00" fill="#000000">ActiveStorage::Blob</text>
<polyline fill="none" stroke="#000000" points="4.5,-378.5 148.5,-378.5 "/>
<text text-anchor="start" x="11.5" y="-365" font-family="Arial" font-size="10.00" fill="#000000">byte_size </text>
<text text-anchor="start" x="57.5" y="-365" font-family="Arial Italic" font-size="10.00" fill="#999999">integer (8) ∗</text>
<text text-anchor="start" x="11.5" y="-352" font-family="Arial" font-size="10.00" fill="#000000">checksum </text>
<text text-anchor="start" x="60.5" y="-352" font-family="Arial Italic" font-size="10.00" fill="#999999">string ∗</text>
<text text-anchor="start" x="11.5" y="-339" font-family="Arial" font-size="10.00" fill="#000000">content_type </text>
<text text-anchor="start" x="71.5" y="-339" font-family="Arial Italic" font-size="10.00" fill="#999999">string</text>
<text text-anchor="start" x="11.5" y="-326" font-family="Arial" font-size="10.00" fill="#000000">filename </text>
<text text-anchor="start" x="51.5" y="-326" font-family="Arial Italic" font-size="10.00" fill="#999999">string ∗</text>
<text text-anchor="start" x="11.5" y="-313" font-family="Arial" font-size="10.00" fill="#000000">id </text>
<text text-anchor="start" x="22.5" y="-313" font-family="Arial Italic" font-size="10.00" fill="#999999">integer (8) PK</text>
<text text-anchor="start" x="11.5" y="-300" font-family="Arial" font-size="10.00" fill="#000000">key </text>
<text text-anchor="start" x="30.5" y="-300" font-family="Arial Italic" font-size="10.00" fill="#999999">string ∗</text>
<text text-anchor="start" x="11.5" y="-287" font-family="Arial" font-size="10.00" fill="#000000">metadata </text>
<text text-anchor="start" x="55.5" y="-287" font-family="Arial Italic" font-size="10.00" fill="#999999">text (65535)</text>
</g>
<!-- m_ActiveStorage::Blob&#45;&gt;m_ActiveStorage::Attachment -->
<g id="edge6" class="edge">
<title>m_ActiveStorage::Blob&#45;&gt;m_ActiveStorage::Attachment</title>
<path fill="none" stroke="#000000" d="M76.5,-277.2136C76.5,-258.7259 76.5,-238.6827 76.5,-221.1889"/>
</g>
<!-- m_ActiveStorage::Blob&#45;&gt;m_ActiveStorage::Blob -->
<g id="edge12" class="edge">
<title>m_ActiveStorage::Blob&#45;&gt;m_ActiveStorage::Blob</title>
<path fill="none" stroke="#000000" stroke-dasharray="1,5" d="M148.6757,-368.0725C165.2932,-365.4812 177.5,-355.457 177.5,-338 177.5,-320.543 165.2932,-310.5188 148.6757,-307.9275"/>
</g>
<!-- m_AuthenticateToken -->
<g id="node3" class="node">
<title>m_AuthenticateToken</title>
<path fill="none" stroke="#000000" d="M194.5,-132.5C194.5,-132.5 314.5,-132.5 314.5,-132.5 320.5,-132.5 326.5,-138.5 326.5,-144.5 326.5,-144.5 326.5,-202.5 326.5,-202.5 326.5,-208.5 320.5,-214.5 314.5,-214.5 314.5,-214.5 194.5,-214.5 194.5,-214.5 188.5,-214.5 182.5,-208.5 182.5,-202.5 182.5,-202.5 182.5,-144.5 182.5,-144.5 182.5,-138.5 188.5,-132.5 194.5,-132.5"/>
<text text-anchor="start" x="203" y="-201.7" font-family="Arial Bold" font-size="11.00" fill="#000000">AuthenticateToken</text>
<polyline fill="none" stroke="#000000" points="182.5,-194.5 326.5,-194.5 "/>
<text text-anchor="start" x="189.5" y="-181.5" font-family="Arial" font-size="10.00" fill="#000000">active </text>
<text text-anchor="start" x="219.5" y="-181.5" font-family="Arial Italic" font-size="10.00" fill="#999999">boolean (0)</text>
<text text-anchor="start" x="189.5" y="-168.5" font-family="Arial" font-size="10.00" fill="#000000">id </text>
<text text-anchor="start" x="200.5" y="-168.5" font-family="Arial Italic" font-size="10.00" fill="#999999">integer (8) PK</text>
<text text-anchor="start" x="189.5" y="-155.5" font-family="Arial" font-size="10.00" fill="#000000">token </text>
<text text-anchor="start" x="217.5" y="-155.5" font-family="Arial Italic" font-size="10.00" fill="#999999">string</text>
<text text-anchor="start" x="189.5" y="-142.5" font-family="Arial" font-size="10.00" fill="#000000">user_id </text>
<text text-anchor="start" x="224.5" y="-142.5" font-family="Arial Italic" font-size="10.00" fill="#999999">integer (8) FK</text>
</g>
<!-- m_Group -->
<g id="node4" class="node">
<title>m_Group</title>
<path fill="none" stroke="#000000" d="M466.5,-303.5C466.5,-303.5 586.5,-303.5 586.5,-303.5 592.5,-303.5 598.5,-309.5 598.5,-315.5 598.5,-315.5 598.5,-360.5 598.5,-360.5 598.5,-366.5 592.5,-372.5 586.5,-372.5 586.5,-372.5 466.5,-372.5 466.5,-372.5 460.5,-372.5 454.5,-366.5 454.5,-360.5 454.5,-360.5 454.5,-315.5 454.5,-315.5 454.5,-309.5 460.5,-303.5 466.5,-303.5"/>
<text text-anchor="start" x="507.5" y="-359.7" font-family="Arial Bold" font-size="11.00" fill="#000000">Group</text>
<polyline fill="none" stroke="#000000" points="454.5,-352.5 598.5,-352.5 "/>
<text text-anchor="start" x="461.5" y="-339" font-family="Arial" font-size="10.00" fill="#000000">id </text>
<text text-anchor="start" x="472.5" y="-339" font-family="Arial Italic" font-size="10.00" fill="#999999">integer (8) PK</text>
<text text-anchor="start" x="461.5" y="-326" font-family="Arial" font-size="10.00" fill="#000000">name </text>
<text text-anchor="start" x="489.5" y="-326" font-family="Arial Italic" font-size="10.00" fill="#999999">string</text>
<text text-anchor="start" x="461.5" y="-313" font-family="Arial" font-size="10.00" fill="#000000">parent_id </text>
<text text-anchor="start" x="504.5" y="-313" font-family="Arial Italic" font-size="10.00" fill="#999999">integer FK</text>
</g>
<!-- m_Group&#45;&gt;m_Group -->
<g id="edge3" class="edge">
<title>m_Group&#45;&gt;m_Group</title>
<path fill="none" stroke="#000000" d="M598.6757,-368.0725C615.2932,-365.4812 627.5,-355.457 627.5,-338 627.5,-323.8162 619.4416,-314.5392 607.5064,-310.1691"/>
<polygon fill="#000000" stroke="#000000" points="608.174,-307.0887 598.6757,-307.9275 606.624,-313.1951 608.174,-307.0887"/>
</g>
<!-- m_GroupUser -->
<g id="node5" class="node">
<title>m_GroupUser</title>
<path fill="none" stroke="#000000" d="M426.5,-119.5C426.5,-119.5 546.5,-119.5 546.5,-119.5 552.5,-119.5 558.5,-125.5 558.5,-131.5 558.5,-131.5 558.5,-215.5 558.5,-215.5 558.5,-221.5 552.5,-227.5 546.5,-227.5 546.5,-227.5 426.5,-227.5 426.5,-227.5 420.5,-227.5 414.5,-221.5 414.5,-215.5 414.5,-215.5 414.5,-131.5 414.5,-131.5 414.5,-125.5 420.5,-119.5 426.5,-119.5"/>
<text text-anchor="start" x="455" y="-214.7" font-family="Arial Bold" font-size="11.00" fill="#000000">GroupUser</text>
<polyline fill="none" stroke="#000000" points="414.5,-207.5 558.5,-207.5 "/>
<text text-anchor="start" x="421.5" y="-194.5" font-family="Arial" font-size="10.00" fill="#000000">admin </text>
<text text-anchor="start" x="451.5" y="-194.5" font-family="Arial Italic" font-size="10.00" fill="#999999">boolean (0) ∗</text>
<text text-anchor="start" x="421.5" y="-181.5" font-family="Arial" font-size="10.00" fill="#000000">group_id </text>
<text text-anchor="start" x="461.5" y="-181.5" font-family="Arial Italic" font-size="10.00" fill="#999999">integer (8) FK</text>
<text text-anchor="start" x="421.5" y="-168.5" font-family="Arial" font-size="10.00" fill="#000000">id </text>
<text text-anchor="start" x="432.5" y="-168.5" font-family="Arial Italic" font-size="10.00" fill="#999999">integer (8) PK</text>
<text text-anchor="start" x="421.5" y="-155.5" font-family="Arial" font-size="10.00" fill="#000000">image </text>
<text text-anchor="start" x="451.5" y="-155.5" font-family="Arial Italic" font-size="10.00" fill="#999999">string</text>
<text text-anchor="start" x="421.5" y="-142.5" font-family="Arial" font-size="10.00" fill="#000000">name </text>
<text text-anchor="start" x="449.5" y="-142.5" font-family="Arial Italic" font-size="10.00" fill="#999999">string ∗</text>
<text text-anchor="start" x="421.5" y="-129.5" font-family="Arial" font-size="10.00" fill="#000000">user_id </text>
<text text-anchor="start" x="456.5" y="-129.5" font-family="Arial Italic" font-size="10.00" fill="#999999">integer (8) FK</text>
</g>
<!-- m_Group&#45;&gt;m_GroupUser -->
<g id="edge1" class="edge">
<title>m_Group&#45;&gt;m_GroupUser</title>
<path fill="none" stroke="#000000" d="M518.017,-303.1138C513.3201,-283.7976 507.3376,-259.1946 501.8496,-236.6254"/>
<polygon fill="#000000" stroke="#000000" points="504.8819,-235.7632 499.6945,-227.7623 498.7602,-237.2518 504.8819,-235.7632"/>
</g>
<!-- m_Post -->
<g id="node6" class="node">
<title>m_Post</title>
<path fill="none" stroke="#000000" d="M484.5,-.5C484.5,-.5 604.5,-.5 604.5,-.5 610.5,-.5 616.5,-6.5 616.5,-12.5 616.5,-12.5 616.5,-70.5 616.5,-70.5 616.5,-76.5 610.5,-82.5 604.5,-82.5 604.5,-82.5 484.5,-82.5 484.5,-82.5 478.5,-82.5 472.5,-76.5 472.5,-70.5 472.5,-70.5 472.5,-12.5 472.5,-12.5 472.5,-6.5 478.5,-.5 484.5,-.5"/>
<text text-anchor="start" x="530" y="-69.7" font-family="Arial Bold" font-size="11.00" fill="#000000">Post</text>
<polyline fill="none" stroke="#000000" points="472.5,-62.5 616.5,-62.5 "/>
<text text-anchor="start" x="479.5" y="-49.5" font-family="Arial" font-size="10.00" fill="#000000">content </text>
<text text-anchor="start" x="515.5" y="-49.5" font-family="Arial Italic" font-size="10.00" fill="#999999">text (65535)</text>
<text text-anchor="start" x="479.5" y="-36.5" font-family="Arial" font-size="10.00" fill="#000000">group_id </text>
<text text-anchor="start" x="519.5" y="-36.5" font-family="Arial Italic" font-size="10.00" fill="#999999">integer (8) FK</text>
<text text-anchor="start" x="479.5" y="-23.5" font-family="Arial" font-size="10.00" fill="#000000">group_user_id </text>
<text text-anchor="start" x="543.5" y="-23.5" font-family="Arial Italic" font-size="10.00" fill="#999999">integer (8) FK</text>
<text text-anchor="start" x="479.5" y="-10.5" font-family="Arial" font-size="10.00" fill="#000000">id </text>
<text text-anchor="start" x="490.5" y="-10.5" font-family="Arial Italic" font-size="10.00" fill="#999999">integer (8) PK</text>
</g>
<!-- m_Group&#45;&gt;m_Post -->
<g id="edge5" class="edge">
<title>m_Group&#45;&gt;m_Post</title>
<path fill="none" stroke="#000000" d="M545.7582,-303.0225C556.2355,-281.9721 568.1279,-254.2458 573.5,-228 583.2145,-180.5396 582.1268,-166.6701 573.5,-119 571.8327,-109.7871 569.1349,-100.2422 566.0392,-91.1315"/>
<polygon fill="#000000" stroke="#000000" points="568.9682,-89.9669 562.97,-82.5545 563.0365,-92.0896 568.9682,-89.9669"/>
</g>
<!-- m_User -->
<g id="node7" class="node">
<title>m_User</title>
<path fill="none" stroke="#000000" d="M270.5,-264.5C270.5,-264.5 390.5,-264.5 390.5,-264.5 396.5,-264.5 402.5,-270.5 402.5,-276.5 402.5,-276.5 402.5,-399.5 402.5,-399.5 402.5,-405.5 396.5,-411.5 390.5,-411.5 390.5,-411.5 270.5,-411.5 270.5,-411.5 264.5,-411.5 258.5,-405.5 258.5,-399.5 258.5,-399.5 258.5,-276.5 258.5,-276.5 258.5,-270.5 264.5,-264.5 270.5,-264.5"/>
<text text-anchor="start" x="316" y="-398.7" font-family="Arial Bold" font-size="11.00" fill="#000000">User</text>
<polyline fill="none" stroke="#000000" points="258.5,-391.5 402.5,-391.5 "/>
<text text-anchor="start" x="265.5" y="-378" font-family="Arial" font-size="10.00" fill="#000000">bio </text>
<text text-anchor="start" x="281.5" y="-378" font-family="Arial Italic" font-size="10.00" fill="#999999">text (65535)</text>
<text text-anchor="start" x="265.5" y="-365" font-family="Arial" font-size="10.00" fill="#000000">email </text>
<text text-anchor="start" x="292.5" y="-365" font-family="Arial Italic" font-size="10.00" fill="#999999">string U</text>
<text text-anchor="start" x="265.5" y="-352" font-family="Arial" font-size="10.00" fill="#000000">id </text>
<text text-anchor="start" x="276.5" y="-352" font-family="Arial Italic" font-size="10.00" fill="#999999">integer (8) PK</text>
<text text-anchor="start" x="265.5" y="-339" font-family="Arial" font-size="10.00" fill="#000000">image </text>
<text text-anchor="start" x="295.5" y="-339" font-family="Arial Italic" font-size="10.00" fill="#999999">string</text>
<text text-anchor="start" x="265.5" y="-326" font-family="Arial" font-size="10.00" fill="#000000">name </text>
<text text-anchor="start" x="293.5" y="-326" font-family="Arial Italic" font-size="10.00" fill="#999999">string ∗</text>
<text text-anchor="start" x="265.5" y="-313" font-family="Arial" font-size="10.00" fill="#000000">oauth_token </text>
<text text-anchor="start" x="322.5" y="-313" font-family="Arial Italic" font-size="10.00" fill="#999999">string</text>
<text text-anchor="start" x="265.5" y="-300" font-family="Arial" font-size="10.00" fill="#000000">oauth_token_secret </text>
<text text-anchor="start" x="354.5" y="-300" font-family="Arial Italic" font-size="10.00" fill="#999999">string</text>
<text text-anchor="start" x="265.5" y="-287" font-family="Arial" font-size="10.00" fill="#000000">password_digest </text>
<text text-anchor="start" x="341.5" y="-287" font-family="Arial Italic" font-size="10.00" fill="#999999">string</text>
<text text-anchor="start" x="265.5" y="-274" font-family="Arial" font-size="10.00" fill="#000000">private </text>
<text text-anchor="start" x="298.5" y="-274" font-family="Arial Italic" font-size="10.00" fill="#999999">boolean (0)</text>
</g>
<!-- m_GroupUser&#45;&gt;m_Post -->
<g id="edge11" class="edge">
<title>m_GroupUser&#45;&gt;m_Post</title>
<path fill="none" stroke="#000000" d="M510.2582,-119.4297C514.3779,-110.0537 518.6436,-100.3455 522.7077,-91.0963"/>
<polygon fill="#000000" stroke="#000000" points="525.6367,-92.2606 526.3734,-82.7537 519.869,-89.7262 525.6367,-92.2606"/>
</g>
<!-- m_User&#45;&gt;m_ActiveStorage::Attachment -->
<g id="edge7" class="edge">
<title>m_User&#45;&gt;m_ActiveStorage::Attachment</title>
<path fill="none" stroke="#000000" d="M258.3932,-291.3009C224.5131,-269.3589 184.1791,-243.237 150.1112,-221.1734"/>
</g>
<!-- m_User&#45;&gt;m_AuthenticateToken -->
<g id="edge10" class="edge">
<title>m_User&#45;&gt;m_AuthenticateToken</title>
<path fill="none" stroke="#000000" d="M296.5012,-264.4105C290.0171,-250.3758 283.3758,-236.001 277.3439,-222.945"/>
<polygon fill="#000000" stroke="#000000" points="280.1101,-221.4218 273.4758,-214.5727 274.391,-224.0641 280.1101,-221.4218"/>
</g>
<!-- m_User&#45;&gt;m_GroupUser -->
<g id="edge2" class="edge">
<title>m_User&#45;&gt;m_GroupUser</title>
<path fill="none" stroke="#000000" d="M400.287,-264.4105C409.7786,-254.4018 419.4342,-244.22 428.6833,-234.467"/>
<polygon fill="#000000" stroke="#000000" points="431.1071,-236.4889 435.0145,-227.7908 426.5358,-232.1537 431.1071,-236.4889"/>
</g>
<!-- m_User&#45;&gt;m_Post -->
<g id="edge9" class="edge">
<title>m_User&#45;&gt;m_Post</title>
<path fill="none" stroke="#000000" d="M339.288,-264.4604C348.0211,-218.4024 365.3282,-160.1862 399.5,-119 416.5374,-98.4654 440.4659,-82.5938 463.9812,-70.7177"/>
<polygon fill="#000000" stroke="#000000" points="465.5566,-73.4543 472.2697,-66.6826 462.7989,-67.7899 465.5566,-73.4543"/>
</g>
</g>
</svg>
