<?xml version="1.0" encoding="UTF-8" standalone="no"?>
<!DOCTYPE svg PUBLIC "-//W3C//DTD SVG 1.1//EN"
 "http://www.w3.org/Graphics/SVG/1.1/DTD/svg11.dtd">
<!-- Generated by graphviz version 2.40.1 (20161225.0304)
 -->
<!-- Title: App Pages: 1 -->
<svg width="848pt" height="613pt"
 viewBox="0.00 0.00 848.10 612.60" xmlns="http://www.w3.org/2000/svg" xmlns:xlink="http://www.w3.org/1999/xlink">
<g id="graph0" class="graph" transform="scale(1 1) rotate(0) translate(28.8 583.8)">
<title>App</title>
<polygon fill="#ffffff" stroke="transparent" points="-28.8,28.8 -28.8,-583.8 819.3,-583.8 819.3,28.8 -28.8,28.8"/>
<text text-anchor="middle" x="395.25" y="-540.6" font-family="Arial Bold" font-size="13.00" fill="#000000">App domain model</text>
<!-- m_ActiveStorage::Attachment -->
<g id="node1" class="node">
<title>m_ActiveStorage::Attachment</title>
<path fill="none" stroke="#000000" d="M12,-132.5C12,-132.5 141,-132.5 141,-132.5 147,-132.5 153,-138.5 153,-144.5 153,-144.5 153,-215.5 153,-215.5 153,-221.5 147,-227.5 141,-227.5 141,-227.5 12,-227.5 12,-227.5 6,-227.5 0,-221.5 0,-215.5 0,-215.5 0,-144.5 0,-144.5 0,-138.5 6,-132.5 12,-132.5"/>
<text text-anchor="start" x="5.5" y="-214.7" font-family="Arial Bold" font-size="11.00" fill="#000000">ActiveStorage::Attachment</text>
<polyline fill="none" stroke="#000000" points="0,-207.5 153,-207.5 "/>
<text text-anchor="start" x="11.5" y="-194" font-family="Arial" font-size="10.00" fill="#000000">blob_id </text>
<text text-anchor="start" x="45.5" y="-194" font-family="Arial Italic" font-size="10.00" fill="#999999">integer (8) ∗ FK</text>
<text text-anchor="start" x="11.5" y="-181" font-family="Arial" font-size="10.00" fill="#000000">id </text>
<text text-anchor="start" x="22.5" y="-181" font-family="Arial Italic" font-size="10.00" fill="#999999">integer (8) PK</text>
<text text-anchor="start" x="11.5" y="-168" font-family="Arial" font-size="10.00" fill="#000000">name </text>
<text text-anchor="start" x="39.5" y="-168" font-family="Arial Italic" font-size="10.00" fill="#999999">string ∗</text>
<text text-anchor="start" x="11.5" y="-155" font-family="Arial" font-size="10.00" fill="#000000">record_id </text>
<text text-anchor="start" x="54.5" y="-155" font-family="Arial Italic" font-size="10.00" fill="#999999">integer (8) ∗ FK</text>
<text text-anchor="start" x="11.5" y="-142" font-family="Arial" font-size="10.00" fill="#000000">record_type </text>
<text text-anchor="start" x="66.5" y="-142" font-family="Arial Italic" font-size="10.00" fill="#999999">string ∗</text>
</g>
<!-- m_ActiveStorage::Blob -->
<g id="node2" class="node">
<title>m_ActiveStorage::Blob</title>
<path fill="none" stroke="#000000" d="M16.5,-284C16.5,-284 136.5,-284 136.5,-284 142.5,-284 148.5,-290 148.5,-296 148.5,-296 148.5,-393 148.5,-393 148.5,-399 142.5,-405 136.5,-405 136.5,-405 16.5,-405 16.5,-405 10.5,-405 4.5,-399 4.5,-393 4.5,-393 4.5,-296 4.5,-296 4.5,-290 10.5,-284 16.5,-284"/>
<text text-anchor="start" x="21" y="-392.2" font-family="Arial Bold" font-size="11.00" fill="#000000">ActiveStorage::Blob</text>
<polyline fill="none" stroke="#000000" points="4.5,-385 148.5,-385 "/>
<text text-anchor="start" x="11.5" y="-371.5" font-family="Arial" font-size="10.00" fill="#000000">byte_size </text>
<text text-anchor="start" x="57.5" y="-371.5" font-family="Arial Italic" font-size="10.00" fill="#999999">integer (8) ∗</text>
<text text-anchor="start" x="11.5" y="-358.5" font-family="Arial" font-size="10.00" fill="#000000">checksum </text>
<text text-anchor="start" x="60.5" y="-358.5" font-family="Arial Italic" font-size="10.00" fill="#999999">string ∗</text>
<text text-anchor="start" x="11.5" y="-345.5" font-family="Arial" font-size="10.00" fill="#000000">content_type </text>
<text text-anchor="start" x="71.5" y="-345.5" font-family="Arial Italic" font-size="10.00" fill="#999999">string</text>
<text text-anchor="start" x="11.5" y="-332.5" font-family="Arial" font-size="10.00" fill="#000000">filename </text>
<text text-anchor="start" x="51.5" y="-332.5" font-family="Arial Italic" font-size="10.00" fill="#999999">string ∗</text>
<text text-anchor="start" x="11.5" y="-319.5" font-family="Arial" font-size="10.00" fill="#000000">id </text>
<text text-anchor="start" x="22.5" y="-319.5" font-family="Arial Italic" font-size="10.00" fill="#999999">integer (8) PK</text>
<text text-anchor="start" x="11.5" y="-306.5" font-family="Arial" font-size="10.00" fill="#000000">key </text>
<text text-anchor="start" x="30.5" y="-306.5" font-family="Arial Italic" font-size="10.00" fill="#999999">string ∗</text>
<text text-anchor="start" x="11.5" y="-293.5" font-family="Arial" font-size="10.00" fill="#000000">metadata </text>
<text text-anchor="start" x="55.5" y="-293.5" font-family="Arial Italic" font-size="10.00" fill="#999999">text (65535)</text>
</g>
<!-- m_ActiveStorage::Blob&#45;&gt;m_ActiveStorage::Attachment -->
<g id="edge12" class="edge">
<title>m_ActiveStorage::Blob&#45;&gt;m_ActiveStorage::Attachment</title>
<path fill="none" stroke="#000000" d="M76.5,-283.7136C76.5,-265.2259 76.5,-245.1827 76.5,-227.6889"/>
</g>
<!-- m_ActiveStorage::Blob&#45;&gt;m_ActiveStorage::Blob -->
<g id="edge16" class="edge">
<title>m_ActiveStorage::Blob&#45;&gt;m_ActiveStorage::Blob</title>
<path fill="none" stroke="#000000" stroke-dasharray="1,5" d="M148.6757,-369.8049C165.2932,-367.6244 177.5,-359.1895 177.5,-344.5 177.5,-329.8105 165.2932,-321.3756 148.6757,-319.1951"/>
</g>
<!-- m_AuthenticateToken -->
<g id="node3" class="node">
<title>m_AuthenticateToken</title>
<path fill="none" stroke="#000000" d="M194.5,-139C194.5,-139 314.5,-139 314.5,-139 320.5,-139 326.5,-145 326.5,-151 326.5,-151 326.5,-209 326.5,-209 326.5,-215 320.5,-221 314.5,-221 314.5,-221 194.5,-221 194.5,-221 188.5,-221 182.5,-215 182.5,-209 182.5,-209 182.5,-151 182.5,-151 182.5,-145 188.5,-139 194.5,-139"/>
<text text-anchor="start" x="203" y="-208.2" font-family="Arial Bold" font-size="11.00" fill="#000000">AuthenticateToken</text>
<polyline fill="none" stroke="#000000" points="182.5,-201 326.5,-201 "/>
<text text-anchor="start" x="189.5" y="-188" font-family="Arial" font-size="10.00" fill="#000000">active </text>
<text text-anchor="start" x="219.5" y="-188" font-family="Arial Italic" font-size="10.00" fill="#999999">boolean (0)</text>
<text text-anchor="start" x="189.5" y="-175" font-family="Arial" font-size="10.00" fill="#000000">id </text>
<text text-anchor="start" x="200.5" y="-175" font-family="Arial Italic" font-size="10.00" fill="#999999">integer (8) PK</text>
<text text-anchor="start" x="189.5" y="-162" font-family="Arial" font-size="10.00" fill="#000000">token </text>
<text text-anchor="start" x="217.5" y="-162" font-family="Arial Italic" font-size="10.00" fill="#999999">string</text>
<text text-anchor="start" x="189.5" y="-149" font-family="Arial" font-size="10.00" fill="#000000">user_id </text>
<text text-anchor="start" x="224.5" y="-149" font-family="Arial Italic" font-size="10.00" fill="#999999">integer (8) FK</text>
</g>
<!-- m_Group -->
<g id="node4" class="node">
<title>m_Group</title>
<path fill="none" stroke="#000000" d="M542.5,-297C542.5,-297 662.5,-297 662.5,-297 668.5,-297 674.5,-303 674.5,-309 674.5,-309 674.5,-380 674.5,-380 674.5,-386 668.5,-392 662.5,-392 662.5,-392 542.5,-392 542.5,-392 536.5,-392 530.5,-386 530.5,-380 530.5,-380 530.5,-309 530.5,-309 530.5,-303 536.5,-297 542.5,-297"/>
<text text-anchor="start" x="583.5" y="-379.2" font-family="Arial Bold" font-size="11.00" fill="#000000">Group</text>
<polyline fill="none" stroke="#000000" points="530.5,-372 674.5,-372 "/>
<text text-anchor="start" x="537.5" y="-358.5" font-family="Arial" font-size="10.00" fill="#000000">id </text>
<text text-anchor="start" x="548.5" y="-358.5" font-family="Arial Italic" font-size="10.00" fill="#999999">integer (8) PK</text>
<text text-anchor="start" x="537.5" y="-345.5" font-family="Arial" font-size="10.00" fill="#000000">introduction </text>
<text text-anchor="start" x="591.5" y="-345.5" font-family="Arial Italic" font-size="10.00" fill="#999999">boolean (0) ∗</text>
<text text-anchor="start" x="537.5" y="-332.5" font-family="Arial" font-size="10.00" fill="#000000">public </text>
<text text-anchor="start" x="566.5" y="-332.5" font-family="Arial Italic" font-size="10.00" fill="#999999">boolean (0) ∗</text>
<text text-anchor="start" x="537.5" y="-319.5" font-family="Arial" font-size="10.00" fill="#000000">questions </text>
<text text-anchor="start" x="583.5" y="-319.5" font-family="Arial Italic" font-size="10.00" fill="#999999">text (65535)</text>
<text text-anchor="start" x="537.5" y="-306.5" font-family="Arial" font-size="10.00" fill="#000000">visible_profile </text>
<text text-anchor="start" x="600.5" y="-306.5" font-family="Arial Italic" font-size="10.00" fill="#999999">boolean (0) ∗</text>
</g>
<!-- m_GroupTag -->
<g id="node5" class="node">
<title>m_GroupTag</title>
<path fill="none" stroke="#000000" d="M658.5,-145.5C658.5,-145.5 778.5,-145.5 778.5,-145.5 784.5,-145.5 790.5,-151.5 790.5,-157.5 790.5,-157.5 790.5,-202.5 790.5,-202.5 790.5,-208.5 784.5,-214.5 778.5,-214.5 778.5,-214.5 658.5,-214.5 658.5,-214.5 652.5,-214.5 646.5,-208.5 646.5,-202.5 646.5,-202.5 646.5,-157.5 646.5,-157.5 646.5,-151.5 652.5,-145.5 658.5,-145.5"/>
<text text-anchor="start" x="690" y="-201.7" font-family="Arial Bold" font-size="11.00" fill="#000000">GroupTag</text>
<polyline fill="none" stroke="#000000" points="646.5,-194.5 790.5,-194.5 "/>
<text text-anchor="start" x="653.5" y="-181" font-family="Arial" font-size="10.00" fill="#000000">group_id </text>
<text text-anchor="start" x="693.5" y="-181" font-family="Arial Italic" font-size="10.00" fill="#999999">integer (8) FK</text>
<text text-anchor="start" x="653.5" y="-168" font-family="Arial" font-size="10.00" fill="#000000">id </text>
<text text-anchor="start" x="664.5" y="-168" font-family="Arial Italic" font-size="10.00" fill="#999999">integer (8) PK</text>
<text text-anchor="start" x="653.5" y="-155" font-family="Arial" font-size="10.00" fill="#000000">tag_id </text>
<text text-anchor="start" x="683.5" y="-155" font-family="Arial Italic" font-size="10.00" fill="#999999">integer (8) FK</text>
</g>
<!-- m_Group&#45;&gt;m_GroupTag -->
<g id="edge4" class="edge">
<title>m_Group&#45;&gt;m_GroupTag</title>
<path fill="none" stroke="#000000" d="M636.052,-296.9198C652.7043,-273.3051 672.6477,-245.0233 688.7484,-222.1908"/>
<polygon fill="#000000" stroke="#000000" points="691.4387,-223.8416 694.0511,-214.6711 686.2901,-220.211 691.4387,-223.8416"/>
</g>
<!-- m_GroupUser -->
<g id="node6" class="node">
<title>m_GroupUser</title>
<path fill="none" stroke="#000000" d="M426.5,-119.5C426.5,-119.5 546.5,-119.5 546.5,-119.5 552.5,-119.5 558.5,-125.5 558.5,-131.5 558.5,-131.5 558.5,-228.5 558.5,-228.5 558.5,-234.5 552.5,-240.5 546.5,-240.5 546.5,-240.5 426.5,-240.5 426.5,-240.5 420.5,-240.5 414.5,-234.5 414.5,-228.5 414.5,-228.5 414.5,-131.5 414.5,-131.5 414.5,-125.5 420.5,-119.5 426.5,-119.5"/>
<text text-anchor="start" x="455" y="-227.7" font-family="Arial Bold" font-size="11.00" fill="#000000">GroupUser</text>
<polyline fill="none" stroke="#000000" points="414.5,-220.5 558.5,-220.5 "/>
<text text-anchor="start" x="421.5" y="-207" font-family="Arial" font-size="10.00" fill="#000000">admin </text>
<text text-anchor="start" x="451.5" y="-207" font-family="Arial Italic" font-size="10.00" fill="#999999">boolean (0) ∗</text>
<text text-anchor="start" x="421.5" y="-194" font-family="Arial" font-size="10.00" fill="#000000">answers </text>
<text text-anchor="start" x="461.5" y="-194" font-family="Arial Italic" font-size="10.00" fill="#999999">text (65535) ∗</text>
<text text-anchor="start" x="421.5" y="-181" font-family="Arial" font-size="10.00" fill="#000000">group_id </text>
<text text-anchor="start" x="461.5" y="-181" font-family="Arial Italic" font-size="10.00" fill="#999999">integer (8) FK</text>
<text text-anchor="start" x="421.5" y="-168" font-family="Arial" font-size="10.00" fill="#000000">id </text>
<text text-anchor="start" x="432.5" y="-168" font-family="Arial Italic" font-size="10.00" fill="#999999">integer (8) PK</text>
<text text-anchor="start" x="421.5" y="-155" font-family="Arial" font-size="10.00" fill="#000000">introduction </text>
<text text-anchor="start" x="475.5" y="-155" font-family="Arial Italic" font-size="10.00" fill="#999999">text (65535)</text>
<text text-anchor="start" x="421.5" y="-142" font-family="Arial" font-size="10.00" fill="#000000">name </text>
<text text-anchor="start" x="449.5" y="-142" font-family="Arial Italic" font-size="10.00" fill="#999999">string ∗</text>
<text text-anchor="start" x="421.5" y="-129" font-family="Arial" font-size="10.00" fill="#000000">user_id </text>
<text text-anchor="start" x="456.5" y="-129" font-family="Arial Italic" font-size="10.00" fill="#999999">integer (8) FK</text>
</g>
<!-- m_Group&#45;&gt;m_GroupUser -->
<g id="edge2" class="edge">
<title>m_Group&#45;&gt;m_GroupUser</title>
<path fill="none" stroke="#000000" d="M568.948,-296.9198C558.2132,-281.6968 546.1109,-264.5344 534.5519,-248.1425"/>
<polygon fill="#000000" stroke="#000000" points="537.0471,-246.215 529.2861,-240.6751 531.8984,-249.8456 537.0471,-246.215"/>
</g>
<!-- m_Post -->
<g id="node7" class="node">
<title>m_Post</title>
<path fill="none" stroke="#000000" d="M484.5,-.5C484.5,-.5 604.5,-.5 604.5,-.5 610.5,-.5 616.5,-6.5 616.5,-12.5 616.5,-12.5 616.5,-70.5 616.5,-70.5 616.5,-76.5 610.5,-82.5 604.5,-82.5 604.5,-82.5 484.5,-82.5 484.5,-82.5 478.5,-82.5 472.5,-76.5 472.5,-70.5 472.5,-70.5 472.5,-12.5 472.5,-12.5 472.5,-6.5 478.5,-.5 484.5,-.5"/>
<text text-anchor="start" x="530" y="-69.7" font-family="Arial Bold" font-size="11.00" fill="#000000">Post</text>
<polyline fill="none" stroke="#000000" points="472.5,-62.5 616.5,-62.5 "/>
<text text-anchor="start" x="479.5" y="-49.5" font-family="Arial" font-size="10.00" fill="#000000">content </text>
<text text-anchor="start" x="515.5" y="-49.5" font-family="Arial Italic" font-size="10.00" fill="#999999">text (65535)</text>
<text text-anchor="start" x="479.5" y="-36.5" font-family="Arial" font-size="10.00" fill="#000000">group_id </text>
<text text-anchor="start" x="519.5" y="-36.5" font-family="Arial Italic" font-size="10.00" fill="#999999">integer (8) FK</text>
<text text-anchor="start" x="479.5" y="-23.5" font-family="Arial" font-size="10.00" fill="#000000">group_user_id </text>
<text text-anchor="start" x="543.5" y="-23.5" font-family="Arial Italic" font-size="10.00" fill="#999999">integer (8) FK</text>
<text text-anchor="start" x="479.5" y="-10.5" font-family="Arial" font-size="10.00" fill="#000000">id </text>
<text text-anchor="start" x="490.5" y="-10.5" font-family="Arial Italic" font-size="10.00" fill="#999999">integer (8) PK</text>
</g>
<!-- m_Group&#45;&gt;m_Post -->
<g id="edge6" class="edge">
<title>m_Group&#45;&gt;m_Post</title>
<path fill="none" stroke="#000000" d="M599.5671,-296.8377C595.9872,-250.7896 588.4575,-179.3418 573.5,-119 571.2474,-109.9124 568.2622,-100.4291 565.0635,-91.3405"/>
<polygon fill="#000000" stroke="#000000" points="567.9842,-90.155 561.9481,-82.7734 562.0635,-92.308 567.9842,-90.155"/>
</g>
<!-- m_Tag -->
<g id="node8" class="node">
<title>m_Tag</title>
<path fill="none" stroke="#000000" d="M455.5,-448.5C455.5,-448.5 575.5,-448.5 575.5,-448.5 581.5,-448.5 587.5,-454.5 587.5,-460.5 587.5,-460.5 587.5,-505.5 587.5,-505.5 587.5,-511.5 581.5,-517.5 575.5,-517.5 575.5,-517.5 455.5,-517.5 455.5,-517.5 449.5,-517.5 443.5,-511.5 443.5,-505.5 443.5,-505.5 443.5,-460.5 443.5,-460.5 443.5,-454.5 449.5,-448.5 455.5,-448.5"/>
<text text-anchor="start" x="504" y="-504.7" font-family="Arial Bold" font-size="11.00" fill="#000000">Tag</text>
<polyline fill="none" stroke="#000000" points="443.5,-497.5 587.5,-497.5 "/>
<text text-anchor="start" x="450.5" y="-484" font-family="Arial" font-size="10.00" fill="#000000">id </text>
<text text-anchor="start" x="461.5" y="-484" font-family="Arial Italic" font-size="10.00" fill="#999999">integer (8) PK</text>
<text text-anchor="start" x="450.5" y="-471" font-family="Arial" font-size="10.00" fill="#000000">name </text>
<text text-anchor="start" x="478.5" y="-471" font-family="Arial Italic" font-size="10.00" fill="#999999">string</text>
<text text-anchor="start" x="450.5" y="-458" font-family="Arial" font-size="10.00" fill="#000000">parent_id </text>
<text text-anchor="start" x="493.5" y="-458" font-family="Arial Italic" font-size="10.00" fill="#999999">integer FK</text>
</g>
<!-- m_Group&#45;&gt;m_Tag -->
<g id="edge5" class="edge">
<title>m_Group&#45;&gt;m_Tag</title>
<path fill="none" stroke="#000000" stroke-dasharray="1,5" d="M572.5234,-392.2214C562.6455,-407.9466 551.7345,-425.3164 542.1241,-440.6157"/>
<polygon fill="#000000" stroke="#000000" points="539.3493,-439.1111 537.2294,-448.4079 544.6841,-442.4623 539.3493,-439.1111"/>
</g>
<!-- m_User -->
<g id="node9" class="node">
<title>m_User</title>
<path fill="none" stroke="#000000" d="M339.5,-277.5C339.5,-277.5 459.5,-277.5 459.5,-277.5 465.5,-277.5 471.5,-283.5 471.5,-289.5 471.5,-289.5 471.5,-399.5 471.5,-399.5 471.5,-405.5 465.5,-411.5 459.5,-411.5 459.5,-411.5 339.5,-411.5 339.5,-411.5 333.5,-411.5 327.5,-405.5 327.5,-399.5 327.5,-399.5 327.5,-289.5 327.5,-289.5 327.5,-283.5 333.5,-277.5 339.5,-277.5"/>
<text text-anchor="start" x="385" y="-398.7" font-family="Arial Bold" font-size="11.00" fill="#000000">User</text>
<polyline fill="none" stroke="#000000" points="327.5,-391.5 471.5,-391.5 "/>
<text text-anchor="start" x="334.5" y="-378.5" font-family="Arial" font-size="10.00" fill="#000000">bio </text>
<text text-anchor="start" x="350.5" y="-378.5" font-family="Arial Italic" font-size="10.00" fill="#999999">text (65535)</text>
<text text-anchor="start" x="334.5" y="-365.5" font-family="Arial" font-size="10.00" fill="#000000">email </text>
<text text-anchor="start" x="361.5" y="-365.5" font-family="Arial Italic" font-size="10.00" fill="#999999">string U</text>
<text text-anchor="start" x="334.5" y="-352.5" font-family="Arial" font-size="10.00" fill="#000000">id </text>
<text text-anchor="start" x="345.5" y="-352.5" font-family="Arial Italic" font-size="10.00" fill="#999999">integer (8) PK</text>
<text text-anchor="start" x="334.5" y="-339.5" font-family="Arial" font-size="10.00" fill="#000000">image </text>
<text text-anchor="start" x="364.5" y="-339.5" font-family="Arial Italic" font-size="10.00" fill="#999999">string</text>
<text text-anchor="start" x="334.5" y="-326.5" font-family="Arial" font-size="10.00" fill="#000000">name </text>
<text text-anchor="start" x="362.5" y="-326.5" font-family="Arial Italic" font-size="10.00" fill="#999999">string ∗</text>
<text text-anchor="start" x="334.5" y="-313.5" font-family="Arial" font-size="10.00" fill="#000000">oauth_token </text>
<text text-anchor="start" x="391.5" y="-313.5" font-family="Arial Italic" font-size="10.00" fill="#999999">string</text>
<text text-anchor="start" x="334.5" y="-300.5" font-family="Arial" font-size="10.00" fill="#000000">oauth_token_secret </text>
<text text-anchor="start" x="423.5" y="-300.5" font-family="Arial Italic" font-size="10.00" fill="#999999">string</text>
<text text-anchor="start" x="334.5" y="-287.5" font-family="Arial" font-size="10.00" fill="#000000">password_digest </text>
<text text-anchor="start" x="410.5" y="-287.5" font-family="Arial Italic" font-size="10.00" fill="#999999">string</text>
</g>
<!-- m_GroupUser&#45;&gt;m_Post -->
<g id="edge9" class="edge">
<title>m_GroupUser&#45;&gt;m_Post</title>
<path fill="none" stroke="#000000" d="M511.9396,-119.2519C515.8608,-109.8884 519.8702,-100.3144 523.675,-91.2285"/>
<polygon fill="#000000" stroke="#000000" points="526.6799,-92.2081 527.2508,-82.6898 520.8688,-89.7745 526.6799,-92.2081"/>
</g>
<!-- m_Tag&#45;&gt;m_GroupTag -->
<g id="edge7" class="edge">
<title>m_Tag&#45;&gt;m_GroupTag</title>
<path fill="none" stroke="#000000" d="M587.8296,-471.2137C623.9689,-461.4878 665.0903,-443.8532 689.5,-412 731.1054,-357.7074 730.5029,-274.3673 725.2317,-223.7451"/>
<polygon fill="#000000" stroke="#000000" points="728.3486,-223.2746 724.2023,-214.688 722.0889,-223.9862 728.3486,-223.2746"/>
</g>
<!-- m_Tag&#45;&gt;m_Tag -->
<g id="edge10" class="edge">
<title>m_Tag&#45;&gt;m_Tag</title>
<path fill="none" stroke="#000000" d="M587.6757,-508.3049C604.2932,-506.1244 616.5,-497.6895 616.5,-483 616.5,-471.0648 608.4416,-463.2586 596.5064,-459.5813"/>
<polygon fill="#000000" stroke="#000000" points="597.1351,-456.4946 587.6757,-457.6951 595.8191,-462.6556 597.1351,-456.4946"/>
</g>
<!-- m_Tag&#45;&gt;m_User -->
<g id="edge11" class="edge">
<title>m_Tag&#45;&gt;m_User</title>
<path fill="none" stroke="#000000" d="M480.6452,-441.3846C474.6105,-434.1794 468.176,-426.4968 461.6711,-418.7301"/>
<polygon fill="#000000" stroke="#000000" points="478.3338,-443.5308 486.5275,-448.4079 483.1636,-439.4856 478.3338,-443.5308"/>
<polygon fill="#000000" stroke="#000000" points="463.8806,-416.4623 455.6869,-411.5852 459.0508,-420.5075 463.8806,-416.4623"/>
</g>
<!-- m_User&#45;&gt;m_ActiveStorage::Attachment -->
<g id="edge13" class="edge">
<title>m_User&#45;&gt;m_ActiveStorage::Attachment</title>
<path fill="none" stroke="#000000" d="M327.4093,-316.0853C280.8171,-296.8156 219.4132,-269.7036 167.5,-241 160.0098,-236.8586 152.3411,-232.2883 144.788,-227.5678"/>
</g>
<!-- m_User&#45;&gt;m_AuthenticateToken -->
<g id="edge1" class="edge">
<title>m_User&#45;&gt;m_AuthenticateToken</title>
<path fill="none" stroke="#000000" d="M340.1046,-277.1169C325.5904,-260.6509 310.3515,-243.3625 296.8199,-228.0112"/>
<polygon fill="#000000" stroke="#000000" points="299.0459,-225.7728 290.7316,-221.1042 294.3198,-229.9387 299.0459,-225.7728"/>
</g>
<!-- m_User&#45;&gt;m_GroupUser -->
<g id="edge8" class="edge">
<title>m_User&#45;&gt;m_GroupUser</title>
<path fill="none" stroke="#000000" d="M435.1373,-277.1169C440.0733,-267.7838 445.1491,-258.1865 450.0988,-248.8275"/>
<polygon fill="#000000" stroke="#000000" points="452.9863,-250.1055 454.4095,-240.6769 447.4172,-247.1601 452.9863,-250.1055"/>
</g>
<!-- m_User&#45;&gt;m_Post -->
<g id="edge15" class="edge">
<title>m_User&#45;&gt;m_Post</title>
<path fill="none" stroke="#000000" d="M382.6783,-277.2647C374.6573,-229.7009 372.1341,-166.2413 400.5,-119 414.8123,-95.1639 439.2469,-78.2232 463.9651,-66.3905"/>
<polygon fill="#000000" stroke="#000000" points="465.4616,-69.1702 472.3444,-62.5709 462.8485,-63.4377 465.4616,-69.1702"/>
</g>
</g>
</svg>
